<?xml version="1.0" encoding="UTF-8" standalone="no"?>
<!DOCTYPE svg PUBLIC "-//W3C//DTD SVG 1.1//EN"
 "http://www.w3.org/Graphics/SVG/1.1/DTD/svg11.dtd">
<!-- Generated by graphviz version 2.43.0 (0)
 -->
<!-- Title: Objects Pages: 1 -->
<svg width="662pt" height="260pt"
 viewBox="0.00 0.00 662.18 260.00" xmlns="http://www.w3.org/2000/svg" xmlns:xlink="http://www.w3.org/1999/xlink">
<g id="graph0" class="graph" transform="scale(1 1) rotate(0) translate(4 256)">
<title>Objects</title>
<polygon fill="white" stroke="transparent" points="-4,4 -4,-256 658.18,-256 658.18,4 -4,4"/>
<!-- 0x7fef91170000 -->
<g id="node1" class="node">
<title>0x7fef91170000</title>
<ellipse fill="none" stroke="black" cx="87.09" cy="-234" rx="87.18" ry="18"/>
<text text-anchor="middle" x="87.09" y="-230.3" font-family="Times,serif" font-size="14.00">0x7fef91170000</text>
</g>
<!-- 0x7fef91170060 -->
<g id="node2" class="node">
<title>0x7fef91170060</title>
<ellipse fill="none" stroke="black" cx="87.09" cy="-162" rx="87.18" ry="18"/>
<text text-anchor="middle" x="87.09" y="-158.3" font-family="Times,serif" font-size="14.00">0x7fef91170060</text>
</g>
<!-- 0x7fef91170000&#45;&gt;0x7fef91170060 -->
<g id="edge1" class="edge">
<title>0x7fef91170000&#45;&gt;0x7fef91170060</title>
<path fill="none" stroke="black" d="M81.18,-215.7C80.38,-207.98 80.15,-198.71 80.5,-190.11"/>
<polygon fill="black" stroke="black" points="83.99,-190.32 81.2,-180.1 77.01,-189.84 83.99,-190.32"/>
</g>
<!-- 0x7fef91170060&#45;&gt;0x7fef91170000 -->
<g id="edge2" class="edge">
<title>0x7fef91170060&#45;&gt;0x7fef91170000</title>
<path fill="none" stroke="black" d="M92.99,-180.1C93.79,-187.79 94.03,-197.05 93.7,-205.67"/>
<polygon fill="black" stroke="black" points="90.2,-205.48 93.01,-215.7 97.18,-205.96 90.2,-205.48"/>
</g>
<!-- 0x7fef911700c0 -->
<g id="node3" class="node">
<title>0x7fef911700c0</title>
<ellipse fill="none" stroke="black" cx="87.09" cy="-90" rx="85.59" ry="18"/>
<text text-anchor="middle" x="87.09" y="-86.3" font-family="Times,serif" font-size="14.00">0x7fef911700c0</text>
</g>
<!-- 0x7fef91170060&#45;&gt;0x7fef911700c0 -->
<g id="edge3" class="edge">
<title>0x7fef91170060&#45;&gt;0x7fef911700c0</title>
<path fill="none" stroke="black" d="M81.18,-143.7C80.38,-135.98 80.15,-126.71 80.5,-118.11"/>
<polygon fill="black" stroke="black" points="83.99,-118.32 81.2,-108.1 77.01,-117.84 83.99,-118.32"/>
</g>
<!-- 0x7fef911700c0&#45;&gt;0x7fef91170060 -->
<g id="edge4" class="edge">
<title>0x7fef911700c0&#45;&gt;0x7fef91170060</title>
<path fill="none" stroke="black" d="M92.99,-108.1C93.79,-115.79 94.03,-125.05 93.7,-133.67"/>
<polygon fill="black" stroke="black" points="90.2,-133.48 93.01,-143.7 97.18,-133.96 90.2,-133.48"/>
</g>
<!-- 0x7fef91170120 -->
<g id="node4" class="node">
<title>0x7fef91170120</title>
<ellipse fill="none" stroke="black" cx="87.09" cy="-18" rx="87.18" ry="18"/>
<text text-anchor="middle" x="87.09" y="-14.3" font-family="Times,serif" font-size="14.00">0x7fef91170120</text>
</g>
<!-- 0x7fef911700c0&#45;&gt;0x7fef91170120 -->
<g id="edge5" class="edge">
<title>0x7fef911700c0&#45;&gt;0x7fef91170120</title>
<path fill="none" stroke="black" d="M81.18,-71.7C80.38,-63.98 80.15,-54.71 80.5,-46.11"/>
<polygon fill="black" stroke="black" points="83.99,-46.32 81.2,-36.1 77.01,-45.84 83.99,-46.32"/>
</g>
<!-- 0x7fef91170120&#45;&gt;0x7fef911700c0 -->
<g id="edge6" class="edge">
<title>0x7fef91170120&#45;&gt;0x7fef911700c0</title>
<path fill="none" stroke="black" d="M92.99,-36.1C93.79,-43.79 94.03,-53.05 93.7,-61.67"/>
<polygon fill="black" stroke="black" points="90.2,-61.48 93.01,-71.7 97.18,-61.96 90.2,-61.48"/>
</g>
<!-- 0x7fef91170180 -->
<g id="node5" class="node">
<title>0x7fef91170180</title>
<ellipse fill="none" stroke="black" cx="375.09" cy="-234" rx="87.18" ry="18"/>
<text text-anchor="middle" x="375.09" y="-230.3" font-family="Times,serif" font-size="14.00">0x7fef91170180</text>
</g>
<!-- 0x7fef911701e0 -->
<g id="node6" class="node">
<title>0x7fef911701e0</title>
<ellipse fill="none" stroke="black" cx="279.09" cy="-162" rx="86.38" ry="18"/>
<text text-anchor="middle" x="279.09" y="-158.3" font-family="Times,serif" font-size="14.00">0x7fef911701e0</text>
</g>
<!-- 0x7fef91170180&#45;&gt;0x7fef911701e0 -->
<g id="edge7" class="edge">
<title>0x7fef91170180&#45;&gt;0x7fef911701e0</title>
<path fill="none" stroke="black" d="M347.29,-216.94C333.71,-207.8 317.6,-196.2 304.38,-186.1"/>
<polygon fill="black" stroke="black" points="306.21,-183.09 296.16,-179.72 301.91,-188.61 306.21,-183.09"/>
</g>
<!-- 0x7fef91170240 -->
<g id="node7" class="node">
<title>0x7fef91170240</title>
<ellipse fill="none" stroke="black" cx="471.09" cy="-162" rx="87.18" ry="18"/>
<text text-anchor="middle" x="471.09" y="-158.3" font-family="Times,serif" font-size="14.00">0x7fef91170240</text>
</g>
<!-- 0x7fef91170180&#45;&gt;0x7fef91170240 -->
<g id="edge8" class="edge">
<title>0x7fef91170180&#45;&gt;0x7fef91170240</title>
<path fill="none" stroke="black" d="M392.45,-216.05C404.35,-206.65 420.39,-194.85 434.93,-184.77"/>
<polygon fill="black" stroke="black" points="437,-187.6 443.27,-179.07 433.04,-181.82 437,-187.6"/>
</g>
<!-- 0x7fef911701e0&#45;&gt;0x7fef91170180 -->
<g id="edge9" class="edge">
<title>0x7fef911701e0&#45;&gt;0x7fef91170180</title>
<path fill="none" stroke="black" d="M306.91,-179.07C320.39,-188.14 336.37,-199.65 349.54,-209.7"/>
<polygon fill="black" stroke="black" points="347.69,-212.69 357.73,-216.05 351.98,-207.16 347.69,-212.69"/>
</g>
<!-- 0x7fef91170240&#45;&gt;0x7fef91170180 -->
<g id="edge10" class="edge">
<title>0x7fef91170240&#45;&gt;0x7fef91170180</title>
<path fill="none" stroke="black" d="M454.02,-179.72C442.11,-189.15 425.95,-201.04 411.3,-211.19"/>
<polygon fill="black" stroke="black" points="409.18,-208.41 402.9,-216.94 413.13,-214.19 409.18,-208.41"/>
</g>
<!-- 0x7fef911702a0 -->
<g id="node8" class="node">
<title>0x7fef911702a0</title>
<ellipse fill="none" stroke="black" cx="375.09" cy="-90" rx="86.38" ry="18"/>
<text text-anchor="middle" x="375.09" y="-86.3" font-family="Times,serif" font-size="14.00">0x7fef911702a0</text>
</g>
<!-- 0x7fef91170240&#45;&gt;0x7fef911702a0 -->
<g id="edge11" class="edge">
<title>0x7fef91170240&#45;&gt;0x7fef911702a0</title>
<path fill="none" stroke="black" d="M443.29,-144.94C429.71,-135.8 413.6,-124.2 400.38,-114.1"/>
<polygon fill="black" stroke="black" points="402.21,-111.09 392.16,-107.72 397.91,-116.61 402.21,-111.09"/>
</g>
<!-- 0x7fef91170300 -->
<g id="node9" class="node">
<title>0x7fef91170300</title>
<ellipse fill="none" stroke="black" cx="567.09" cy="-90" rx="87.18" ry="18"/>
<text text-anchor="middle" x="567.09" y="-86.3" font-family="Times,serif" font-size="14.00">0x7fef91170300</text>
</g>
<!-- 0x7fef91170240&#45;&gt;0x7fef91170300 -->
<g id="edge12" class="edge">
<title>0x7fef91170240&#45;&gt;0x7fef91170300</title>
<path fill="none" stroke="black" d="M488.45,-144.05C500.35,-134.65 516.39,-122.85 530.93,-112.77"/>
<polygon fill="black" stroke="black" points="533,-115.6 539.27,-107.07 529.04,-109.82 533,-115.6"/>
</g>
<!-- 0x7fef911702a0&#45;&gt;0x7fef91170240 -->
<g id="edge13" class="edge">
<title>0x7fef911702a0&#45;&gt;0x7fef91170240</title>
<path fill="none" stroke="black" d="M402.91,-107.07C416.39,-116.14 432.37,-127.65 445.54,-137.7"/>
<polygon fill="black" stroke="black" points="443.69,-140.69 453.73,-144.05 447.98,-135.16 443.69,-140.69"/>
</g>
<!-- 0x7fef91170300&#45;&gt;0x7fef91170240 -->
<g id="edge14" class="edge">
<title>0x7fef91170300&#45;&gt;0x7fef91170240</title>
<path fill="none" stroke="black" d="M550.02,-107.72C538.11,-117.15 521.95,-129.04 507.3,-139.19"/>
<polygon fill="black" stroke="black" points="505.18,-136.41 498.9,-144.94 509.13,-142.19 505.18,-136.41"/>
</g>
<!-- 0x7fef91170360 -->
<g id="node10" class="node">
<title>0x7fef91170360</title>
<ellipse fill="none" stroke="black" cx="567.09" cy="-18" rx="87.18" ry="18"/>
<text text-anchor="middle" x="567.09" y="-14.3" font-family="Times,serif" font-size="14.00">0x7fef91170360</text>
</g>
<!-- 0x7fef91170300&#45;&gt;0x7fef91170360 -->
<g id="edge15" class="edge">
<title>0x7fef91170300&#45;&gt;0x7fef91170360</title>
<path fill="none" stroke="black" d="M561.18,-71.7C560.38,-63.98 560.15,-54.71 560.5,-46.11"/>
<polygon fill="black" stroke="black" points="563.99,-46.32 561.2,-36.1 557.01,-45.84 563.99,-46.32"/>
</g>
<!-- 0x7fef91170360&#45;&gt;0x7fef91170300 -->
<g id="edge16" class="edge">
<title>0x7fef91170360&#45;&gt;0x7fef91170300</title>
<path fill="none" stroke="black" d="M572.99,-36.1C573.79,-43.79 574.03,-53.05 573.7,-61.67"/>
<polygon fill="black" stroke="black" points="570.2,-61.48 573.01,-71.7 577.18,-61.96 570.2,-61.48"/>
</g>
</g>
</svg>
