<?xml version="1.0" encoding="UTF-8" standalone="no"?>
<!DOCTYPE svg PUBLIC "-//W3C//DTD SVG 1.1//EN"
 "http://www.w3.org/Graphics/SVG/1.1/DTD/svg11.dtd">
<!-- Generated by graphviz version 2.43.0 (0)
 -->
<!-- Title: Objects Pages: 1 -->
<svg width="1092pt" height="488pt"
 viewBox="0.00 0.00 1091.53 487.81" xmlns="http://www.w3.org/2000/svg" xmlns:xlink="http://www.w3.org/1999/xlink">
<g id="graph0" class="graph" transform="scale(1 1) rotate(0) translate(4 483.81)">
<title>Objects</title>
<polygon fill="white" stroke="transparent" points="-4,4 -4,-483.81 1087.53,-483.81 1087.53,4 -4,4"/>
<!-- 0x19b297400000 -->
<g id="node1" class="node">
<title>0x19b297400000</title>
<ellipse fill="#ccebc5" stroke="black" cx="183.53" cy="-442.34" rx="100.32" ry="37.45"/>
<text text-anchor="middle" x="183.53" y="-453.64" font-family="Times,serif" font-size="14.00">chunk</text>
<text text-anchor="middle" x="183.53" y="-438.64" font-family="Times,serif" font-size="14.00">0x19b297400000</text>
<text text-anchor="middle" x="183.53" y="-423.64" font-family="Times,serif" font-size="14.00">size = 96</text>
</g>
<!-- 0x19b297400060 -->
<g id="node2" class="node">
<title>0x19b297400060</title>
<ellipse fill="#ccebc5" stroke="black" cx="183.53" cy="-331.38" rx="100.32" ry="37.45"/>
<text text-anchor="middle" x="183.53" y="-342.68" font-family="Times,serif" font-size="14.00">chunk</text>
<text text-anchor="middle" x="183.53" y="-327.68" font-family="Times,serif" font-size="14.00">0x19b297400060</text>
<text text-anchor="middle" x="183.53" y="-312.68" font-family="Times,serif" font-size="14.00">size = 96</text>
</g>
<!-- 0x19b297400000&#45;&gt;0x19b297400060 -->
<g id="edge1" class="edge">
<title>0x19b297400000&#45;&gt;0x19b297400060</title>
<path fill="none" stroke="black" d="M177.12,-404.75C176.8,-396.58 176.71,-387.8 176.84,-379.27"/>
<polygon fill="black" stroke="black" points="180.34,-379.15 177.11,-369.06 173.35,-378.96 180.34,-379.15"/>
</g>
<!-- heap -->
<g id="node12" class="node">
<title>heap</title>
<polygon fill="#ccebc5" stroke="transparent" points="101.53,-5 101.53,-30 157.53,-30 157.53,-5 101.53,-5"/>
<polygon fill="none" stroke="black" points="101.53,-5 101.53,-30 157.53,-30 157.53,-5 101.53,-5"/>
<text text-anchor="start" x="106.53" y="-13.8" font-family="Times,serif" font-size="14.00">00000</text>
<polygon fill="#ccebc5" stroke="transparent" points="157.53,-5 157.53,-30 213.53,-30 213.53,-5 157.53,-5"/>
<polygon fill="none" stroke="black" points="157.53,-5 157.53,-30 213.53,-30 213.53,-5 157.53,-5"/>
<text text-anchor="start" x="162.53" y="-13.8" font-family="Times,serif" font-size="14.00">00060</text>
<polygon fill="#ccebc5" stroke="transparent" points="213.53,-5 213.53,-30 267.53,-30 267.53,-5 213.53,-5"/>
<polygon fill="none" stroke="black" points="213.53,-5 213.53,-30 267.53,-30 267.53,-5 213.53,-5"/>
<text text-anchor="start" x="218.53" y="-13.8" font-family="Times,serif" font-size="14.00">000c0</text>
<polygon fill="#ccebc5" stroke="transparent" points="267.53,-5 267.53,-30 323.53,-30 323.53,-5 267.53,-5"/>
<polygon fill="none" stroke="black" points="267.53,-5 267.53,-30 323.53,-30 323.53,-5 267.53,-5"/>
<text text-anchor="start" x="272.53" y="-13.8" font-family="Times,serif" font-size="14.00">00120</text>
<polygon fill="#ccebc5" stroke="transparent" points="323.53,-5 323.53,-30 379.53,-30 379.53,-5 323.53,-5"/>
<polygon fill="none" stroke="black" points="323.53,-5 323.53,-30 379.53,-30 379.53,-5 323.53,-5"/>
<text text-anchor="start" x="328.53" y="-13.8" font-family="Times,serif" font-size="14.00">00180</text>
<polygon fill="#ccebc5" stroke="transparent" points="379.53,-5 379.53,-30 434.53,-30 434.53,-5 379.53,-5"/>
<polygon fill="none" stroke="black" points="379.53,-5 379.53,-30 434.53,-30 434.53,-5 379.53,-5"/>
<text text-anchor="start" x="384.53" y="-13.8" font-family="Times,serif" font-size="14.00">001e0</text>
<polygon fill="#ccebc5" stroke="transparent" points="434.53,-5 434.53,-30 490.53,-30 490.53,-5 434.53,-5"/>
<polygon fill="none" stroke="black" points="434.53,-5 434.53,-30 490.53,-30 490.53,-5 434.53,-5"/>
<text text-anchor="start" x="439.53" y="-13.8" font-family="Times,serif" font-size="14.00">00240</text>
<polygon fill="#ccebc5" stroke="transparent" points="490.53,-5 490.53,-30 545.53,-30 545.53,-5 490.53,-5"/>
<polygon fill="none" stroke="black" points="490.53,-5 490.53,-30 545.53,-30 545.53,-5 490.53,-5"/>
<text text-anchor="start" x="495.53" y="-13.8" font-family="Times,serif" font-size="14.00">002a0</text>
<polygon fill="#ccebc5" stroke="transparent" points="545.53,-5 545.53,-30 601.53,-30 601.53,-5 545.53,-5"/>
<polygon fill="none" stroke="black" points="545.53,-5 545.53,-30 601.53,-30 601.53,-5 545.53,-5"/>
<text text-anchor="start" x="550.53" y="-13.8" font-family="Times,serif" font-size="14.00">00300</text>
<polygon fill="#ccebc5" stroke="transparent" points="601.53,-5 601.53,-30 657.53,-30 657.53,-5 601.53,-5"/>
<polygon fill="none" stroke="black" points="601.53,-5 601.53,-30 657.53,-30 657.53,-5 601.53,-5"/>
<text text-anchor="start" x="606.53" y="-13.8" font-family="Times,serif" font-size="14.00">00360</text>
<polygon fill="#fed9a6" stroke="transparent" points="657.53,-5 657.53,-30 711.53,-30 711.53,-5 657.53,-5"/>
<polygon fill="none" stroke="black" points="657.53,-5 657.53,-30 711.53,-30 711.53,-5 657.53,-5"/>
<text text-anchor="start" x="662.53" y="-13.8" font-family="Times,serif" font-size="14.00">003c0</text>
<polygon fill="none" stroke="black" points="711.53,-5 711.53,-30 744.53,-30 744.53,-5 711.53,-5"/>
<text text-anchor="start" x="716.53" y="-13.8" font-family="Times,serif" font-size="14.00">.....</text>
</g>
<!-- 0x19b297400000&#45;&gt;heap -->
<g id="edge17" class="edge">
<title>0x19b297400000&#45;&gt;heap:0x19b297400000</title>
<path fill="none" stroke="#bcbddc" stroke-dasharray="5,2" d="M119.38,-413.26C101.63,-402.15 84.52,-387.49 74.53,-368.86 2.12,-233.75 -53.72,-26.56 90.29,-17.32"/>
<polygon fill="#bcbddc" stroke="#bcbddc" points="90.65,-20.81 100.53,-17 90.43,-13.81 90.65,-20.81"/>
</g>
<!-- 0x19b297400060&#45;&gt;0x19b297400000 -->
<g id="edge2" class="edge">
<title>0x19b297400060&#45;&gt;0x19b297400000</title>
<path fill="none" stroke="black" d="M189.95,-369.06C190.27,-377.23 190.36,-386.02 190.22,-394.54"/>
<polygon fill="black" stroke="black" points="186.72,-394.66 189.95,-404.75 193.71,-394.85 186.72,-394.66"/>
</g>
<!-- 0x19b2974000c0 -->
<g id="node3" class="node">
<title>0x19b2974000c0</title>
<ellipse fill="#ccebc5" stroke="black" cx="201.53" cy="-220.43" rx="98.99" ry="37.45"/>
<text text-anchor="middle" x="201.53" y="-231.73" font-family="Times,serif" font-size="14.00">chunk</text>
<text text-anchor="middle" x="201.53" y="-216.73" font-family="Times,serif" font-size="14.00">0x19b2974000c0</text>
<text text-anchor="middle" x="201.53" y="-201.73" font-family="Times,serif" font-size="14.00">size = 96</text>
</g>
<!-- 0x19b297400060&#45;&gt;0x19b2974000c0 -->
<g id="edge3" class="edge">
<title>0x19b297400060&#45;&gt;0x19b2974000c0</title>
<path fill="none" stroke="black" d="M183.16,-293.8C184.22,-285.45 185.61,-276.46 187.2,-267.76"/>
<polygon fill="black" stroke="black" points="190.67,-268.21 189.13,-257.73 183.8,-266.89 190.67,-268.21"/>
</g>
<!-- 0x19b297400060&#45;&gt;heap -->
<g id="edge18" class="edge">
<title>0x19b297400060&#45;&gt;heap:0x19b297400060</title>
<path fill="none" stroke="#bcbddc" stroke-dasharray="5,2" d="M129.39,-299.39C115.06,-288.29 101.41,-274.37 93.53,-257.91 79.15,-227.86 90.13,-216.09 93.53,-182.95 98.67,-132.86 87.29,-113 116.53,-72 134.9,-46.25 174.95,-61.98 183.78,-41"/>
<polygon fill="#bcbddc" stroke="#bcbddc" points="187.26,-41.45 185.53,-31 180.36,-40.25 187.26,-41.45"/>
</g>
<!-- 0x19b2974000c0&#45;&gt;0x19b297400060 -->
<g id="edge4" class="edge">
<title>0x19b2974000c0&#45;&gt;0x19b297400060</title>
<path fill="none" stroke="black" d="M201.91,-257.92C200.86,-266.3 199.46,-275.31 197.87,-284.04"/>
<polygon fill="black" stroke="black" points="194.39,-283.62 195.93,-294.1 201.26,-284.95 194.39,-283.62"/>
</g>
<!-- 0x19b297400120 -->
<g id="node4" class="node">
<title>0x19b297400120</title>
<ellipse fill="#ccebc5" stroke="black" cx="240.53" cy="-109.48" rx="100.32" ry="37.45"/>
<text text-anchor="middle" x="240.53" y="-120.78" font-family="Times,serif" font-size="14.00">chunk</text>
<text text-anchor="middle" x="240.53" y="-105.78" font-family="Times,serif" font-size="14.00">0x19b297400120</text>
<text text-anchor="middle" x="240.53" y="-90.78" font-family="Times,serif" font-size="14.00">size = 96</text>
</g>
<!-- 0x19b2974000c0&#45;&gt;0x19b297400120 -->
<g id="edge5" class="edge">
<title>0x19b2974000c0&#45;&gt;0x19b297400120</title>
<path fill="none" stroke="black" d="M208.21,-182.85C210.97,-174.22 214.21,-164.92 217.58,-155.96"/>
<polygon fill="black" stroke="black" points="220.93,-157 221.28,-146.41 214.41,-154.47 220.93,-157"/>
</g>
<!-- 0x19b2974000c0&#45;&gt;heap -->
<g id="edge19" class="edge">
<title>0x19b2974000c0&#45;&gt;heap:0x19b2974000c0</title>
<path fill="none" stroke="#bcbddc" stroke-dasharray="5,2" d="M159.21,-186.31C148.06,-175.14 137.5,-161.71 131.53,-146.95 119.05,-116.07 112.57,-99.39 131.53,-72 158.69,-32.77 228.41,-75.01 239.14,-41.3"/>
<polygon fill="#bcbddc" stroke="#bcbddc" points="242.66,-41.38 240.53,-31 235.72,-40.44 242.66,-41.38"/>
</g>
<!-- 0x19b297400120&#45;&gt;0x19b2974000c0 -->
<g id="edge6" class="edge">
<title>0x19b297400120&#45;&gt;0x19b2974000c0</title>
<path fill="none" stroke="black" d="M233.82,-147.16C231.07,-155.76 227.84,-165.02 224.48,-173.94"/>
<polygon fill="black" stroke="black" points="221.15,-172.86 220.8,-183.45 227.67,-175.39 221.15,-172.86"/>
</g>
<!-- 0x19b297400120&#45;&gt;heap -->
<g id="edge20" class="edge">
<title>0x19b297400120&#45;&gt;heap:0x19b297400120</title>
<path fill="none" stroke="#bcbddc" stroke-dasharray="5,2" d="M277.83,-74.46C285.57,-64.63 292.12,-53.22 294.53,-40.98"/>
<polygon fill="#bcbddc" stroke="#bcbddc" points="298.02,-41.3 295.53,-31 291.05,-40.6 298.02,-41.3"/>
</g>
<!-- 0x19b297400180 -->
<g id="node5" class="node">
<title>0x19b297400180</title>
<ellipse fill="#ccebc5" stroke="black" cx="496.53" cy="-442.34" rx="100.32" ry="37.45"/>
<text text-anchor="middle" x="496.53" y="-453.64" font-family="Times,serif" font-size="14.00">chunk</text>
<text text-anchor="middle" x="496.53" y="-438.64" font-family="Times,serif" font-size="14.00">0x19b297400180</text>
<text text-anchor="middle" x="496.53" y="-423.64" font-family="Times,serif" font-size="14.00">size = 96</text>
</g>
<!-- 0x19b2974001e0 -->
<g id="node6" class="node">
<title>0x19b2974001e0</title>
<ellipse fill="#ccebc5" stroke="black" cx="496.53" cy="-331.38" rx="99.9" ry="37.45"/>
<text text-anchor="middle" x="496.53" y="-342.68" font-family="Times,serif" font-size="14.00">chunk</text>
<text text-anchor="middle" x="496.53" y="-327.68" font-family="Times,serif" font-size="14.00">0x19b2974001e0</text>
<text text-anchor="middle" x="496.53" y="-312.68" font-family="Times,serif" font-size="14.00">size = 96</text>
</g>
<!-- 0x19b297400180&#45;&gt;0x19b2974001e0 -->
<g id="edge7" class="edge">
<title>0x19b297400180&#45;&gt;0x19b2974001e0</title>
<path fill="none" stroke="black" d="M490.12,-404.75C489.8,-396.58 489.71,-387.8 489.84,-379.27"/>
<polygon fill="black" stroke="black" points="493.34,-379.15 490.11,-369.06 486.35,-378.96 493.34,-379.15"/>
</g>
<!-- 0x19b297400240 -->
<g id="node7" class="node">
<title>0x19b297400240</title>
<ellipse fill="#ccebc5" stroke="black" cx="714.53" cy="-331.38" rx="100.32" ry="37.45"/>
<text text-anchor="middle" x="714.53" y="-342.68" font-family="Times,serif" font-size="14.00">chunk</text>
<text text-anchor="middle" x="714.53" y="-327.68" font-family="Times,serif" font-size="14.00">0x19b297400240</text>
<text text-anchor="middle" x="714.53" y="-312.68" font-family="Times,serif" font-size="14.00">size = 96</text>
</g>
<!-- 0x19b297400180&#45;&gt;0x19b297400240 -->
<g id="edge8" class="edge">
<title>0x19b297400180&#45;&gt;0x19b297400240</title>
<path fill="none" stroke="black" d="M551.42,-410.84C579.06,-396.64 612.88,-379.71 642.57,-365.23"/>
<polygon fill="black" stroke="black" points="644.18,-368.34 651.64,-360.81 641.11,-362.04 644.18,-368.34"/>
</g>
<!-- 0x19b297400180&#45;&gt;heap -->
<g id="edge21" class="edge">
<title>0x19b297400180&#45;&gt;heap:0x19b297400180</title>
<path fill="none" stroke="#bcbddc" stroke-dasharray="5,2" d="M434.13,-412.94C416.25,-401.75 398.61,-387.13 387.53,-368.86 350.07,-307.07 351.34,-123.26 351.52,-41.39"/>
<polygon fill="#bcbddc" stroke="#bcbddc" points="355.02,-41 351.53,-31 348.02,-41 355.02,-41"/>
</g>
<!-- 0x19b2974001e0&#45;&gt;0x19b297400180 -->
<g id="edge9" class="edge">
<title>0x19b2974001e0&#45;&gt;0x19b297400180</title>
<path fill="none" stroke="black" d="M502.95,-369.06C503.27,-377.23 503.36,-386.02 503.22,-394.54"/>
<polygon fill="black" stroke="black" points="499.72,-394.66 502.95,-404.75 506.71,-394.85 499.72,-394.66"/>
</g>
<!-- 0x19b2974001e0&#45;&gt;heap -->
<g id="edge22" class="edge">
<title>0x19b2974001e0&#45;&gt;heap:0x19b2974001e0</title>
<path fill="none" stroke="#bcbddc" stroke-dasharray="5,2" d="M457.53,-296.48C447.05,-285.28 436.88,-272.03 430.53,-257.91 390.41,-168.56 405.4,-134.73 406.47,-41.16"/>
<polygon fill="#bcbddc" stroke="#bcbddc" points="409.97,-41.02 406.53,-31 402.97,-40.98 409.97,-41.02"/>
</g>
<!-- 0x19b297400240&#45;&gt;0x19b297400180 -->
<g id="edge10" class="edge">
<title>0x19b297400240&#45;&gt;0x19b297400180</title>
<path fill="none" stroke="black" d="M659.65,-362.88C631.96,-377.11 598.06,-394.07 568.33,-408.58"/>
<polygon fill="black" stroke="black" points="566.71,-405.47 559.25,-412.99 569.77,-411.77 566.71,-405.47"/>
</g>
<!-- 0x19b2974002a0 -->
<g id="node8" class="node">
<title>0x19b2974002a0</title>
<ellipse fill="#ccebc5" stroke="black" cx="572.53" cy="-220.43" rx="99.9" ry="37.45"/>
<text text-anchor="middle" x="572.53" y="-231.73" font-family="Times,serif" font-size="14.00">chunk</text>
<text text-anchor="middle" x="572.53" y="-216.73" font-family="Times,serif" font-size="14.00">0x19b2974002a0</text>
<text text-anchor="middle" x="572.53" y="-201.73" font-family="Times,serif" font-size="14.00">size = 96</text>
</g>
<!-- 0x19b297400240&#45;&gt;0x19b2974002a0 -->
<g id="edge11" class="edge">
<title>0x19b297400240&#45;&gt;0x19b2974002a0</title>
<path fill="none" stroke="black" d="M666.48,-298.28C650.85,-286.74 633.58,-273.57 618.13,-261.43"/>
<polygon fill="black" stroke="black" points="620.26,-258.65 610.24,-255.19 615.92,-264.14 620.26,-258.65"/>
</g>
<!-- 0x19b297400300 -->
<g id="node9" class="node">
<title>0x19b297400300</title>
<ellipse fill="#ccebc5" stroke="black" cx="790.53" cy="-220.43" rx="100.32" ry="37.45"/>
<text text-anchor="middle" x="790.53" y="-231.73" font-family="Times,serif" font-size="14.00">chunk</text>
<text text-anchor="middle" x="790.53" y="-216.73" font-family="Times,serif" font-size="14.00">0x19b297400300</text>
<text text-anchor="middle" x="790.53" y="-201.73" font-family="Times,serif" font-size="14.00">size = 96</text>
</g>
<!-- 0x19b297400240&#45;&gt;0x19b297400300 -->
<g id="edge12" class="edge">
<title>0x19b297400240&#45;&gt;0x19b297400300</title>
<path fill="none" stroke="black" d="M733.24,-294.41C739.54,-284.82 746.76,-274.36 753.92,-264.44"/>
<polygon fill="black" stroke="black" points="756.82,-266.4 759.89,-256.26 751.17,-262.27 756.82,-266.4"/>
</g>
<!-- 0x19b297400240&#45;&gt;heap -->
<g id="edge23" class="edge">
<title>0x19b297400240&#45;&gt;heap:0x19b297400240</title>
<path fill="none" stroke="#bcbddc" stroke-dasharray="5,2" d="M642.07,-305.29C629.92,-301.33 617.4,-297.39 605.53,-293.91 543.06,-275.56 503.63,-309.2 463.53,-257.91 403.55,-181.17 458.5,-135.07 462.32,-41.15"/>
<polygon fill="#bcbddc" stroke="#bcbddc" points="465.83,-41.07 462.53,-31 458.83,-40.93 465.83,-41.07"/>
</g>
<!-- 0x19b2974002a0&#45;&gt;0x19b297400240 -->
<g id="edge13" class="edge">
<title>0x19b2974002a0&#45;&gt;0x19b297400240</title>
<path fill="none" stroke="black" d="M620.44,-253.42C636.06,-264.96 653.33,-278.12 668.78,-290.27"/>
<polygon fill="black" stroke="black" points="666.67,-293.05 676.68,-296.51 671.01,-287.56 666.67,-293.05"/>
</g>
<!-- 0x19b2974002a0&#45;&gt;heap -->
<g id="edge24" class="edge">
<title>0x19b2974002a0&#45;&gt;heap:0x19b2974002a0</title>
<path fill="none" stroke="#bcbddc" stroke-dasharray="5,2" d="M555.74,-183.48C540.85,-148.45 521.1,-93.02 518.76,-41.01"/>
<polygon fill="#bcbddc" stroke="#bcbddc" points="522.26,-40.92 518.53,-31 515.26,-41.08 522.26,-40.92"/>
</g>
<!-- 0x19b297400300&#45;&gt;0x19b297400240 -->
<g id="edge14" class="edge">
<title>0x19b297400300&#45;&gt;0x19b297400240</title>
<path fill="none" stroke="black" d="M771.85,-257.37C765.53,-266.98 758.3,-277.46 751.12,-287.41"/>
<polygon fill="black" stroke="black" points="748.2,-285.47 745.13,-295.61 753.86,-289.6 748.2,-285.47"/>
</g>
<!-- 0x19b297400360 -->
<g id="node10" class="node">
<title>0x19b297400360</title>
<ellipse fill="#ccebc5" stroke="black" cx="767.53" cy="-109.48" rx="100.32" ry="37.45"/>
<text text-anchor="middle" x="767.53" y="-120.78" font-family="Times,serif" font-size="14.00">chunk</text>
<text text-anchor="middle" x="767.53" y="-105.78" font-family="Times,serif" font-size="14.00">0x19b297400360</text>
<text text-anchor="middle" x="767.53" y="-90.78" font-family="Times,serif" font-size="14.00">size = 96</text>
</g>
<!-- 0x19b297400300&#45;&gt;0x19b297400360 -->
<g id="edge15" class="edge">
<title>0x19b297400300&#45;&gt;0x19b297400360</title>
<path fill="none" stroke="black" d="M776.47,-183.15C774.37,-174.79 772.38,-165.77 770.67,-157.04"/>
<polygon fill="black" stroke="black" points="774.07,-156.17 768.82,-146.97 767.19,-157.44 774.07,-156.17"/>
</g>
<!-- 0x19b297400300&#45;&gt;heap -->
<g id="edge25" class="edge">
<title>0x19b297400300&#45;&gt;heap:0x19b297400300</title>
<path fill="none" stroke="#bcbddc" stroke-dasharray="5,2" d="M721.27,-193.22C660.5,-165.39 580.73,-115.14 573.99,-41.11"/>
<polygon fill="#bcbddc" stroke="#bcbddc" points="577.48,-40.83 573.53,-31 570.49,-41.15 577.48,-40.83"/>
</g>
<!-- 0x19b297400360&#45;&gt;0x19b297400300 -->
<g id="edge16" class="edge">
<title>0x19b297400360&#45;&gt;0x19b297400300</title>
<path fill="none" stroke="black" d="M781.6,-146.78C783.69,-155.12 785.68,-164.1 787.38,-172.81"/>
<polygon fill="black" stroke="black" points="783.97,-173.65 789.22,-182.85 790.86,-172.38 783.97,-173.65"/>
</g>
<!-- 0x19b297400360&#45;&gt;heap -->
<g id="edge26" class="edge">
<title>0x19b297400360&#45;&gt;heap:0x19b297400360</title>
<path fill="none" stroke="#bcbddc" stroke-dasharray="5,2" d="M681.31,-90.01C656.79,-79.97 635.37,-64.6 630.55,-41.16"/>
<polygon fill="#bcbddc" stroke="#bcbddc" points="634.01,-40.6 629.53,-31 627.04,-41.3 634.01,-40.6"/>
</g>
<!-- 0x19b2974003c0 -->
<g id="node11" class="node">
<title>0x19b2974003c0</title>
<ellipse fill="#fed9a6" stroke="black" cx="984.53" cy="-109.48" rx="98.99" ry="37.45"/>
<text text-anchor="middle" x="984.53" y="-120.78" font-family="Times,serif" font-size="14.00">chunk</text>
<text text-anchor="middle" x="984.53" y="-105.78" font-family="Times,serif" font-size="14.00">0x19b2974003c0</text>
<text text-anchor="middle" x="984.53" y="-90.78" font-family="Times,serif" font-size="14.00">size = 33553472</text>
</g>
<!-- 0x19b2974003c0&#45;&gt;heap -->
<g id="edge27" class="edge">
<title>0x19b2974003c0&#45;&gt;heap:0x19b2974003c0</title>
<path fill="none" stroke="#bcbddc" stroke-dasharray="5,2" d="M913.73,-83.27C901.4,-79.25 888.65,-75.33 876.53,-72 837.91,-61.39 708.4,-72.47 687.42,-40.62"/>
<polygon fill="#bcbddc" stroke="#bcbddc" points="690.76,-39.57 684.53,-31 684.05,-41.58 690.76,-39.57"/>
</g>
</g>
</svg>
