<?xml version="1.0" encoding="UTF-8" standalone="no"?>
<!DOCTYPE svg PUBLIC "-//W3C//DTD SVG 1.1//EN"
 "http://www.w3.org/Graphics/SVG/1.1/DTD/svg11.dtd">
<!-- Generated by graphviz version 2.43.0 (0)
 -->
<!-- Title: Objects Pages: 1 -->
<svg width="1012pt" height="331pt"
 viewBox="0.00 0.00 1012.36 330.96" xmlns="http://www.w3.org/2000/svg" xmlns:xlink="http://www.w3.org/1999/xlink">
<g id="graph0" class="graph" transform="scale(1 1) rotate(0) translate(4 326.96)">
<title>Objects</title>
<polygon fill="white" stroke="transparent" points="-4,4 -4,-326.96 1008.36,-326.96 1008.36,4 -4,4"/>
<!-- 0x7ff168fa0000 -->
<g id="node1" class="node">
<title>0x7ff168fa0000</title>
<ellipse fill="none" stroke="black" cx="137.18" cy="-296.09" rx="137.36" ry="26.74"/>
<text text-anchor="middle" x="137.18" y="-299.89" font-family="Times,serif" font-size="14.00">chunk = 0x7ff168fa0000</text>
<text text-anchor="middle" x="137.18" y="-284.89" font-family="Times,serif" font-size="14.00">chunk.size = 96</text>
</g>
<!-- 0x7ff168fa0060 -->
<g id="node2" class="node">
<title>0x7ff168fa0060</title>
<ellipse fill="none" stroke="black" cx="137.18" cy="-206.35" rx="137.36" ry="26.74"/>
<text text-anchor="middle" x="137.18" y="-210.15" font-family="Times,serif" font-size="14.00">chunk = 0x7ff168fa0060</text>
<text text-anchor="middle" x="137.18" y="-195.15" font-family="Times,serif" font-size="14.00">chunk.size = 96</text>
</g>
<!-- 0x7ff168fa0000&#45;&gt;0x7ff168fa0060 -->
<g id="edge1" class="edge">
<title>0x7ff168fa0000&#45;&gt;0x7ff168fa0060</title>
<path fill="none" stroke="black" d="M130.96,-269.24C130.46,-261.19 130.31,-252.16 130.52,-243.54"/>
<polygon fill="black" stroke="black" points="134.03,-243.46 130.96,-233.32 127.03,-243.16 134.03,-243.46"/>
</g>
<!-- 0x7ff168fa0060&#45;&gt;0x7ff168fa0000 -->
<g id="edge2" class="edge">
<title>0x7ff168fa0060&#45;&gt;0x7ff168fa0000</title>
<path fill="none" stroke="black" d="M143.4,-233.32C143.9,-241.38 144.05,-250.41 143.83,-259.03"/>
<polygon fill="black" stroke="black" points="140.33,-259.1 143.39,-269.24 147.32,-259.4 140.33,-259.1"/>
</g>
<!-- 0x7ff168fa00c0 -->
<g id="node3" class="node">
<title>0x7ff168fa00c0</title>
<ellipse fill="none" stroke="black" cx="137.18" cy="-116.61" rx="135.53" ry="26.74"/>
<text text-anchor="middle" x="137.18" y="-120.41" font-family="Times,serif" font-size="14.00">chunk = 0x7ff168fa00c0</text>
<text text-anchor="middle" x="137.18" y="-105.41" font-family="Times,serif" font-size="14.00">chunk.size = 96</text>
</g>
<!-- 0x7ff168fa0060&#45;&gt;0x7ff168fa00c0 -->
<g id="edge3" class="edge">
<title>0x7ff168fa0060&#45;&gt;0x7ff168fa00c0</title>
<path fill="none" stroke="black" d="M130.96,-179.5C130.46,-171.45 130.31,-162.42 130.52,-153.8"/>
<polygon fill="black" stroke="black" points="134.03,-153.72 130.96,-143.58 127.03,-153.42 134.03,-153.72"/>
</g>
<!-- 0x7ff168fa00c0&#45;&gt;0x7ff168fa0060 -->
<g id="edge4" class="edge">
<title>0x7ff168fa00c0&#45;&gt;0x7ff168fa0060</title>
<path fill="none" stroke="black" d="M143.4,-143.58C143.9,-151.64 144.05,-160.67 143.83,-169.29"/>
<polygon fill="black" stroke="black" points="140.33,-169.36 143.39,-179.5 147.32,-169.66 140.33,-169.36"/>
</g>
<!-- 0x7ff168fa0120 -->
<g id="node4" class="node">
<title>0x7ff168fa0120</title>
<ellipse fill="none" stroke="black" cx="137.18" cy="-26.87" rx="137.36" ry="26.74"/>
<text text-anchor="middle" x="137.18" y="-30.67" font-family="Times,serif" font-size="14.00">chunk = 0x7ff168fa0120</text>
<text text-anchor="middle" x="137.18" y="-15.67" font-family="Times,serif" font-size="14.00">chunk.size = 96</text>
</g>
<!-- 0x7ff168fa00c0&#45;&gt;0x7ff168fa0120 -->
<g id="edge5" class="edge">
<title>0x7ff168fa00c0&#45;&gt;0x7ff168fa0120</title>
<path fill="none" stroke="black" d="M130.96,-89.76C130.46,-81.71 130.31,-72.68 130.52,-64.06"/>
<polygon fill="black" stroke="black" points="134.03,-63.98 130.96,-53.84 127.03,-63.68 134.03,-63.98"/>
</g>
<!-- 0x7ff168fa0120&#45;&gt;0x7ff168fa00c0 -->
<g id="edge6" class="edge">
<title>0x7ff168fa0120&#45;&gt;0x7ff168fa00c0</title>
<path fill="none" stroke="black" d="M143.4,-53.84C143.9,-61.9 144.05,-70.93 143.83,-79.55"/>
<polygon fill="black" stroke="black" points="140.33,-79.62 143.39,-89.76 147.32,-79.92 140.33,-79.62"/>
</g>
<!-- 0x7ff168fa0180 -->
<g id="node5" class="node">
<title>0x7ff168fa0180</title>
<ellipse fill="none" stroke="black" cx="575.18" cy="-296.09" rx="137.36" ry="26.74"/>
<text text-anchor="middle" x="575.18" y="-299.89" font-family="Times,serif" font-size="14.00">chunk = 0x7ff168fa0180</text>
<text text-anchor="middle" x="575.18" y="-284.89" font-family="Times,serif" font-size="14.00">chunk.size = 96</text>
</g>
<!-- 0x7ff168fa01e0 -->
<g id="node6" class="node">
<title>0x7ff168fa01e0</title>
<ellipse fill="none" stroke="black" cx="429.18" cy="-206.35" rx="136.44" ry="26.74"/>
<text text-anchor="middle" x="429.18" y="-210.15" font-family="Times,serif" font-size="14.00">chunk = 0x7ff168fa01e0</text>
<text text-anchor="middle" x="429.18" y="-195.15" font-family="Times,serif" font-size="14.00">chunk.size = 96</text>
</g>
<!-- 0x7ff168fa0180&#45;&gt;0x7ff168fa01e0 -->
<g id="edge7" class="edge">
<title>0x7ff168fa0180&#45;&gt;0x7ff168fa01e0</title>
<path fill="none" stroke="black" d="M528.39,-270.65C510.88,-260.55 491.08,-248.72 473.78,-238.04"/>
<polygon fill="black" stroke="black" points="475.32,-234.88 464.98,-232.58 471.63,-240.83 475.32,-234.88"/>
</g>
<!-- 0x7ff168fa0240 -->
<g id="node7" class="node">
<title>0x7ff168fa0240</title>
<ellipse fill="none" stroke="black" cx="721.18" cy="-206.35" rx="137.36" ry="26.74"/>
<text text-anchor="middle" x="721.18" y="-210.15" font-family="Times,serif" font-size="14.00">chunk = 0x7ff168fa0240</text>
<text text-anchor="middle" x="721.18" y="-195.15" font-family="Times,serif" font-size="14.00">chunk.size = 96</text>
</g>
<!-- 0x7ff168fa0180&#45;&gt;0x7ff168fa0240 -->
<g id="edge8" class="edge">
<title>0x7ff168fa0180&#45;&gt;0x7ff168fa0240</title>
<path fill="none" stroke="black" d="M610.85,-269.95C627.33,-259.63 647.24,-247.62 665.6,-236.89"/>
<polygon fill="black" stroke="black" points="667.58,-239.79 674.47,-231.74 664.07,-233.74 667.58,-239.79"/>
</g>
<!-- 0x7ff168fa01e0&#45;&gt;0x7ff168fa0180 -->
<g id="edge9" class="edge">
<title>0x7ff168fa01e0&#45;&gt;0x7ff168fa0180</title>
<path fill="none" stroke="black" d="M475.88,-231.74C493.45,-241.88 513.33,-253.75 530.69,-264.47"/>
<polygon fill="black" stroke="black" points="529.17,-267.64 539.51,-269.95 532.86,-261.7 529.17,-267.64"/>
</g>
<!-- 0x7ff168fa0240&#45;&gt;0x7ff168fa0180 -->
<g id="edge10" class="edge">
<title>0x7ff168fa0240&#45;&gt;0x7ff168fa0180</title>
<path fill="none" stroke="black" d="M685.38,-232.58C668.94,-242.86 649.11,-254.82 630.81,-265.52"/>
<polygon fill="black" stroke="black" points="628.86,-262.6 621.97,-270.65 632.38,-268.65 628.86,-262.6"/>
</g>
<!-- 0x7ff168fa02a0 -->
<g id="node8" class="node">
<title>0x7ff168fa02a0</title>
<ellipse fill="none" stroke="black" cx="575.18" cy="-116.61" rx="136.44" ry="26.74"/>
<text text-anchor="middle" x="575.18" y="-120.41" font-family="Times,serif" font-size="14.00">chunk = 0x7ff168fa02a0</text>
<text text-anchor="middle" x="575.18" y="-105.41" font-family="Times,serif" font-size="14.00">chunk.size = 96</text>
</g>
<!-- 0x7ff168fa0240&#45;&gt;0x7ff168fa02a0 -->
<g id="edge11" class="edge">
<title>0x7ff168fa0240&#45;&gt;0x7ff168fa02a0</title>
<path fill="none" stroke="black" d="M674.39,-180.91C656.88,-170.81 637.08,-158.98 619.78,-148.3"/>
<polygon fill="black" stroke="black" points="621.32,-145.14 610.98,-142.84 617.63,-151.09 621.32,-145.14"/>
</g>
<!-- 0x7ff168fa0300 -->
<g id="node9" class="node">
<title>0x7ff168fa0300</title>
<ellipse fill="none" stroke="black" cx="867.18" cy="-116.61" rx="137.36" ry="26.74"/>
<text text-anchor="middle" x="867.18" y="-120.41" font-family="Times,serif" font-size="14.00">chunk = 0x7ff168fa0300</text>
<text text-anchor="middle" x="867.18" y="-105.41" font-family="Times,serif" font-size="14.00">chunk.size = 96</text>
</g>
<!-- 0x7ff168fa0240&#45;&gt;0x7ff168fa0300 -->
<g id="edge12" class="edge">
<title>0x7ff168fa0240&#45;&gt;0x7ff168fa0300</title>
<path fill="none" stroke="black" d="M756.85,-180.21C773.33,-169.89 793.24,-157.88 811.6,-147.15"/>
<polygon fill="black" stroke="black" points="813.58,-150.05 820.47,-142 810.07,-144 813.58,-150.05"/>
</g>
<!-- 0x7ff168fa02a0&#45;&gt;0x7ff168fa0240 -->
<g id="edge13" class="edge">
<title>0x7ff168fa02a0&#45;&gt;0x7ff168fa0240</title>
<path fill="none" stroke="black" d="M621.88,-142C639.45,-152.14 659.33,-164.01 676.69,-174.73"/>
<polygon fill="black" stroke="black" points="675.17,-177.9 685.51,-180.21 678.86,-171.96 675.17,-177.9"/>
</g>
<!-- 0x7ff168fa0300&#45;&gt;0x7ff168fa0240 -->
<g id="edge14" class="edge">
<title>0x7ff168fa0300&#45;&gt;0x7ff168fa0240</title>
<path fill="none" stroke="black" d="M831.38,-142.84C814.94,-153.12 795.11,-165.08 776.81,-175.78"/>
<polygon fill="black" stroke="black" points="774.86,-172.86 767.97,-180.91 778.38,-178.91 774.86,-172.86"/>
</g>
<!-- 0x7ff168fa0360 -->
<g id="node10" class="node">
<title>0x7ff168fa0360</title>
<ellipse fill="none" stroke="black" cx="867.18" cy="-26.87" rx="137.36" ry="26.74"/>
<text text-anchor="middle" x="867.18" y="-30.67" font-family="Times,serif" font-size="14.00">chunk = 0x7ff168fa0360</text>
<text text-anchor="middle" x="867.18" y="-15.67" font-family="Times,serif" font-size="14.00">chunk.size = 96</text>
</g>
<!-- 0x7ff168fa0300&#45;&gt;0x7ff168fa0360 -->
<g id="edge15" class="edge">
<title>0x7ff168fa0300&#45;&gt;0x7ff168fa0360</title>
<path fill="none" stroke="black" d="M860.96,-89.76C860.46,-81.71 860.31,-72.68 860.52,-64.06"/>
<polygon fill="black" stroke="black" points="864.03,-63.98 860.96,-53.84 857.03,-63.68 864.03,-63.98"/>
</g>
<!-- 0x7ff168fa0360&#45;&gt;0x7ff168fa0300 -->
<g id="edge16" class="edge">
<title>0x7ff168fa0360&#45;&gt;0x7ff168fa0300</title>
<path fill="none" stroke="black" d="M873.4,-53.84C873.9,-61.9 874.05,-70.93 873.83,-79.55"/>
<polygon fill="black" stroke="black" points="870.33,-79.62 873.39,-89.76 877.32,-79.92 870.33,-79.62"/>
</g>
</g>
</svg>
