<?xml version="1.0" encoding="UTF-8" standalone="no"?>
<!DOCTYPE svg PUBLIC "-//W3C//DTD SVG 1.1//EN"
 "http://www.w3.org/Graphics/SVG/1.1/DTD/svg11.dtd">
<!-- Generated by graphviz version 2.40.1 (20161225.0304)
 -->
<!-- Title: Objects Pages: 1 -->
<svg width="980pt" height="811pt"
 viewBox="0.00 0.00 980.05 810.59" xmlns="http://www.w3.org/2000/svg" xmlns:xlink="http://www.w3.org/1999/xlink">
<g id="graph0" class="graph" transform="scale(1 1) rotate(0) translate(4 806.5901)">
<title>Objects</title>
<polygon fill="#ffffff" stroke="transparent" points="-4,4 -4,-806.5901 976.0548,-806.5901 976.0548,4 -4,4"/>
<g id="clust1" class="cluster">
<title>cluster&#45;0x19b297400000</title>
<path fill="#ccebc5" stroke="#000000" d="M20,-606.5901C20,-606.5901 110,-606.5901 110,-606.5901 116,-606.5901 122,-612.5901 122,-618.5901 122,-618.5901 122,-720.9901 122,-720.9901 122,-726.9901 116,-732.9901 110,-732.9901 110,-732.9901 20,-732.9901 20,-732.9901 14,-732.9901 8,-726.9901 8,-720.9901 8,-720.9901 8,-618.5901 8,-618.5901 8,-612.5901 14,-606.5901 20,-606.5901"/>
<text text-anchor="middle" x="65" y="-716.3901" font-family="Times,serif" font-size="14.00" fill="#000000">chunk</text>
<text text-anchor="middle" x="65" y="-699.5901" font-family="Times,serif" font-size="14.00" fill="#000000">0x19b297400000</text>
<text text-anchor="middle" x="65" y="-682.7901" font-family="Times,serif" font-size="14.00" fill="#000000">size = 96</text>
</g>
<g id="clust2" class="cluster">
<title>cluster</title>
<polygon fill="none" stroke="#000000" stroke-dasharray="5,2" points="42,-614.5901 42,-666.5901 114,-666.5901 114,-614.5901 42,-614.5901"/>
</g>
<g id="clust3" class="cluster">
<title>cluster&#45;0x19b297400060</title>
<path fill="#ccebc5" stroke="#000000" d="M77,-462.5901C77,-462.5901 215,-462.5901 215,-462.5901 221,-462.5901 227,-468.5901 227,-474.5901 227,-474.5901 227,-576.9901 227,-576.9901 227,-582.9901 221,-588.9901 215,-588.9901 215,-588.9901 77,-588.9901 77,-588.9901 71,-588.9901 65,-582.9901 65,-576.9901 65,-576.9901 65,-474.5901 65,-474.5901 65,-468.5901 71,-462.5901 77,-462.5901"/>
<text text-anchor="middle" x="146" y="-572.3901" font-family="Times,serif" font-size="14.00" fill="#000000">chunk</text>
<text text-anchor="middle" x="146" y="-555.5901" font-family="Times,serif" font-size="14.00" fill="#000000">0x19b297400060</text>
<text text-anchor="middle" x="146" y="-538.7901" font-family="Times,serif" font-size="14.00" fill="#000000">size = 96</text>
</g>
<g id="clust4" class="cluster">
<title>cluster</title>
<polygon fill="none" stroke="#000000" stroke-dasharray="5,2" points="73,-470.5901 73,-522.5901 219,-522.5901 219,-470.5901 73,-470.5901"/>
</g>
<g id="clust5" class="cluster">
<title>cluster&#45;0x19b2974000c0</title>
<path fill="#ccebc5" stroke="#000000" d="M139,-318.5901C139,-318.5901 277,-318.5901 277,-318.5901 283,-318.5901 289,-324.5901 289,-330.5901 289,-330.5901 289,-432.9901 289,-432.9901 289,-438.9901 283,-444.9901 277,-444.9901 277,-444.9901 139,-444.9901 139,-444.9901 133,-444.9901 127,-438.9901 127,-432.9901 127,-432.9901 127,-330.5901 127,-330.5901 127,-324.5901 133,-318.5901 139,-318.5901"/>
<text text-anchor="middle" x="208" y="-428.3901" font-family="Times,serif" font-size="14.00" fill="#000000">chunk</text>
<text text-anchor="middle" x="208" y="-411.5901" font-family="Times,serif" font-size="14.00" fill="#000000">0x19b2974000c0</text>
<text text-anchor="middle" x="208" y="-394.7901" font-family="Times,serif" font-size="14.00" fill="#000000">size = 96</text>
</g>
<g id="clust6" class="cluster">
<title>cluster</title>
<polygon fill="none" stroke="#000000" stroke-dasharray="5,2" points="135,-326.5901 135,-378.5901 281,-378.5901 281,-326.5901 135,-326.5901"/>
</g>
<g id="clust7" class="cluster">
<title>cluster&#45;0x19b297400120</title>
<path fill="#ccebc5" stroke="#000000" d="M252,-151.295C252,-151.295 342,-151.295 342,-151.295 348,-151.295 354,-157.295 354,-163.295 354,-163.295 354,-265.695 354,-265.695 354,-271.695 348,-277.695 342,-277.695 342,-277.695 252,-277.695 252,-277.695 246,-277.695 240,-271.695 240,-265.695 240,-265.695 240,-163.295 240,-163.295 240,-157.295 246,-151.295 252,-151.295"/>
<text text-anchor="middle" x="297" y="-261.095" font-family="Times,serif" font-size="14.00" fill="#000000">chunk</text>
<text text-anchor="middle" x="297" y="-244.295" font-family="Times,serif" font-size="14.00" fill="#000000">0x19b297400120</text>
<text text-anchor="middle" x="297" y="-227.495" font-family="Times,serif" font-size="14.00" fill="#000000">size = 96</text>
</g>
<g id="clust8" class="cluster">
<title>cluster</title>
<polygon fill="none" stroke="#000000" stroke-dasharray="5,2" points="261,-159.295 261,-211.295 333,-211.295 333,-159.295 261,-159.295"/>
</g>
<g id="clust9" class="cluster">
<title>cluster&#45;0x19b297400180</title>
<path fill="#ccebc5" stroke="#000000" d="M434,-606.5901C434,-606.5901 572,-606.5901 572,-606.5901 578,-606.5901 584,-612.5901 584,-618.5901 584,-618.5901 584,-720.9901 584,-720.9901 584,-726.9901 578,-732.9901 572,-732.9901 572,-732.9901 434,-732.9901 434,-732.9901 428,-732.9901 422,-726.9901 422,-720.9901 422,-720.9901 422,-618.5901 422,-618.5901 422,-612.5901 428,-606.5901 434,-606.5901"/>
<text text-anchor="middle" x="503" y="-716.3901" font-family="Times,serif" font-size="14.00" fill="#000000">chunk</text>
<text text-anchor="middle" x="503" y="-699.5901" font-family="Times,serif" font-size="14.00" fill="#000000">0x19b297400180</text>
<text text-anchor="middle" x="503" y="-682.7901" font-family="Times,serif" font-size="14.00" fill="#000000">size = 96</text>
</g>
<g id="clust10" class="cluster">
<title>cluster</title>
<polygon fill="none" stroke="#000000" stroke-dasharray="5,2" points="430,-614.5901 430,-666.5901 576,-666.5901 576,-614.5901 430,-614.5901"/>
</g>
<g id="clust11" class="cluster">
<title>cluster&#45;0x19b2974001e0</title>
<path fill="#ccebc5" stroke="#000000" d="M367,-462.5901C367,-462.5901 456,-462.5901 456,-462.5901 462,-462.5901 468,-468.5901 468,-474.5901 468,-474.5901 468,-576.9901 468,-576.9901 468,-582.9901 462,-588.9901 456,-588.9901 456,-588.9901 367,-588.9901 367,-588.9901 361,-588.9901 355,-582.9901 355,-576.9901 355,-576.9901 355,-474.5901 355,-474.5901 355,-468.5901 361,-462.5901 367,-462.5901"/>
<text text-anchor="middle" x="411.5" y="-572.3901" font-family="Times,serif" font-size="14.00" fill="#000000">chunk</text>
<text text-anchor="middle" x="411.5" y="-555.5901" font-family="Times,serif" font-size="14.00" fill="#000000">0x19b2974001e0</text>
<text text-anchor="middle" x="411.5" y="-538.7901" font-family="Times,serif" font-size="14.00" fill="#000000">size = 96</text>
</g>
<g id="clust12" class="cluster">
<title>cluster</title>
<polygon fill="none" stroke="#000000" stroke-dasharray="5,2" points="388,-470.5901 388,-522.5901 460,-522.5901 460,-470.5901 388,-470.5901"/>
</g>
<g id="clust13" class="cluster">
<title>cluster&#45;0x19b297400240</title>
<path fill="#ccebc5" stroke="#000000" d="M560,-462.5901C560,-462.5901 794,-462.5901 794,-462.5901 800,-462.5901 806,-468.5901 806,-474.5901 806,-474.5901 806,-576.9901 806,-576.9901 806,-582.9901 800,-588.9901 794,-588.9901 794,-588.9901 560,-588.9901 560,-588.9901 554,-588.9901 548,-582.9901 548,-576.9901 548,-576.9901 548,-474.5901 548,-474.5901 548,-468.5901 554,-462.5901 560,-462.5901"/>
<text text-anchor="middle" x="677" y="-572.3901" font-family="Times,serif" font-size="14.00" fill="#000000">chunk</text>
<text text-anchor="middle" x="677" y="-555.5901" font-family="Times,serif" font-size="14.00" fill="#000000">0x19b297400240</text>
<text text-anchor="middle" x="677" y="-538.7901" font-family="Times,serif" font-size="14.00" fill="#000000">size = 96</text>
</g>
<g id="clust14" class="cluster">
<title>cluster</title>
<polygon fill="none" stroke="#000000" stroke-dasharray="5,2" points="556,-470.5901 556,-522.5901 798,-522.5901 798,-470.5901 556,-470.5901"/>
</g>
<g id="clust15" class="cluster">
<title>cluster&#45;0x19b2974002a0</title>
<path fill="#ccebc5" stroke="#000000" d="M515,-318.5901C515,-318.5901 604,-318.5901 604,-318.5901 610,-318.5901 616,-324.5901 616,-330.5901 616,-330.5901 616,-432.9901 616,-432.9901 616,-438.9901 610,-444.9901 604,-444.9901 604,-444.9901 515,-444.9901 515,-444.9901 509,-444.9901 503,-438.9901 503,-432.9901 503,-432.9901 503,-330.5901 503,-330.5901 503,-324.5901 509,-318.5901 515,-318.5901"/>
<text text-anchor="middle" x="559.5" y="-428.3901" font-family="Times,serif" font-size="14.00" fill="#000000">chunk</text>
<text text-anchor="middle" x="559.5" y="-411.5901" font-family="Times,serif" font-size="14.00" fill="#000000">0x19b2974002a0</text>
<text text-anchor="middle" x="559.5" y="-394.7901" font-family="Times,serif" font-size="14.00" fill="#000000">size = 96</text>
</g>
<g id="clust16" class="cluster">
<title>cluster</title>
<polygon fill="none" stroke="#000000" stroke-dasharray="5,2" points="519,-326.5901 519,-378.5901 599,-378.5901 599,-326.5901 519,-326.5901"/>
</g>
<g id="clust17" class="cluster">
<title>cluster&#45;0x19b297400300</title>
<path fill="#ccebc5" stroke="#000000" d="M639,-318.5901C639,-318.5901 792,-318.5901 792,-318.5901 798,-318.5901 804,-324.5901 804,-330.5901 804,-330.5901 804,-432.9901 804,-432.9901 804,-438.9901 798,-444.9901 792,-444.9901 792,-444.9901 639,-444.9901 639,-444.9901 633,-444.9901 627,-438.9901 627,-432.9901 627,-432.9901 627,-330.5901 627,-330.5901 627,-324.5901 633,-318.5901 639,-318.5901"/>
<text text-anchor="middle" x="715.5" y="-428.3901" font-family="Times,serif" font-size="14.00" fill="#000000">chunk</text>
<text text-anchor="middle" x="715.5" y="-411.5901" font-family="Times,serif" font-size="14.00" fill="#000000">0x19b297400300</text>
<text text-anchor="middle" x="715.5" y="-394.7901" font-family="Times,serif" font-size="14.00" fill="#000000">size = 96</text>
</g>
<g id="clust18" class="cluster">
<title>cluster</title>
<polygon fill="none" stroke="#000000" stroke-dasharray="5,2" points="635,-326.5901 635,-378.5901 796,-378.5901 796,-326.5901 635,-326.5901"/>
</g>
<g id="clust19" class="cluster">
<title>cluster&#45;0x19b297400360</title>
<path fill="#ccebc5" stroke="#000000" d="M702,-151.295C702,-151.295 792,-151.295 792,-151.295 798,-151.295 804,-157.295 804,-163.295 804,-163.295 804,-265.695 804,-265.695 804,-271.695 798,-277.695 792,-277.695 792,-277.695 702,-277.695 702,-277.695 696,-277.695 690,-271.695 690,-265.695 690,-265.695 690,-163.295 690,-163.295 690,-157.295 696,-151.295 702,-151.295"/>
<text text-anchor="middle" x="747" y="-261.095" font-family="Times,serif" font-size="14.00" fill="#000000">chunk</text>
<text text-anchor="middle" x="747" y="-244.295" font-family="Times,serif" font-size="14.00" fill="#000000">0x19b297400360</text>
<text text-anchor="middle" x="747" y="-227.495" font-family="Times,serif" font-size="14.00" fill="#000000">size = 96</text>
</g>
<g id="clust20" class="cluster">
<title>cluster</title>
<polygon fill="none" stroke="#000000" stroke-dasharray="5,2" points="716,-159.295 716,-211.295 796,-211.295 796,-159.295 716,-159.295"/>
</g>
<!-- heap -->
<g id="node1" class="node">
<title>heap</title>
<polygon fill="#ccebc5" stroke="transparent" points="188,-5 188,-31 233,-31 233,-5 188,-5"/>
<polygon fill="none" stroke="#000000" points="188,-5 188,-31 233,-31 233,-5 188,-5"/>
<text text-anchor="start" x="193" y="-13.4" font-family="Times,serif" font-size="14.00" fill="#000000">00000</text>
<polygon fill="#ccebc5" stroke="transparent" points="233,-5 233,-31 278,-31 278,-5 233,-5"/>
<polygon fill="none" stroke="#000000" points="233,-5 233,-31 278,-31 278,-5 233,-5"/>
<text text-anchor="start" x="238" y="-13.4" font-family="Times,serif" font-size="14.00" fill="#000000">00060</text>
<polygon fill="#ccebc5" stroke="transparent" points="278,-5 278,-31 322,-31 322,-5 278,-5"/>
<polygon fill="none" stroke="#000000" points="278,-5 278,-31 322,-31 322,-5 278,-5"/>
<text text-anchor="start" x="282.8927" y="-13.4" font-family="Times,serif" font-size="14.00" fill="#000000">000c0</text>
<polygon fill="#ccebc5" stroke="transparent" points="322,-5 322,-31 367,-31 367,-5 322,-5"/>
<polygon fill="none" stroke="#000000" points="322,-5 322,-31 367,-31 367,-5 322,-5"/>
<text text-anchor="start" x="327" y="-13.4" font-family="Times,serif" font-size="14.00" fill="#000000">00120</text>
<polygon fill="#ccebc5" stroke="transparent" points="367,-5 367,-31 412,-31 412,-5 367,-5"/>
<polygon fill="none" stroke="#000000" points="367,-5 367,-31 412,-31 412,-5 367,-5"/>
<text text-anchor="start" x="372" y="-13.4" font-family="Times,serif" font-size="14.00" fill="#000000">00180</text>
<polygon fill="#ccebc5" stroke="transparent" points="412,-5 412,-31 456,-31 456,-5 412,-5"/>
<polygon fill="none" stroke="#000000" points="412,-5 412,-31 456,-31 456,-5 412,-5"/>
<text text-anchor="start" x="416.8927" y="-13.4" font-family="Times,serif" font-size="14.00" fill="#000000">001e0</text>
<polygon fill="#ccebc5" stroke="transparent" points="456,-5 456,-31 501,-31 501,-5 456,-5"/>
<polygon fill="none" stroke="#000000" points="456,-5 456,-31 501,-31 501,-5 456,-5"/>
<text text-anchor="start" x="461" y="-13.4" font-family="Times,serif" font-size="14.00" fill="#000000">00240</text>
<polygon fill="#ccebc5" stroke="transparent" points="501,-5 501,-31 545,-31 545,-5 501,-5"/>
<polygon fill="none" stroke="#000000" points="501,-5 501,-31 545,-31 545,-5 501,-5"/>
<text text-anchor="start" x="505.8927" y="-13.4" font-family="Times,serif" font-size="14.00" fill="#000000">002a0</text>
<polygon fill="#ccebc5" stroke="transparent" points="545,-5 545,-31 590,-31 590,-5 545,-5"/>
<polygon fill="none" stroke="#000000" points="545,-5 545,-31 590,-31 590,-5 545,-5"/>
<text text-anchor="start" x="550" y="-13.4" font-family="Times,serif" font-size="14.00" fill="#000000">00300</text>
<polygon fill="#ccebc5" stroke="transparent" points="590,-5 590,-31 635,-31 635,-5 590,-5"/>
<polygon fill="none" stroke="#000000" points="590,-5 590,-31 635,-31 635,-5 590,-5"/>
<text text-anchor="start" x="595" y="-13.4" font-family="Times,serif" font-size="14.00" fill="#000000">00360</text>
<polygon fill="#fed9a6" stroke="transparent" points="635,-5 635,-31 679,-31 679,-5 635,-5"/>
<polygon fill="none" stroke="#000000" points="635,-5 635,-31 679,-31 679,-5 635,-5"/>
<text text-anchor="start" x="639.8927" y="-13.4" font-family="Times,serif" font-size="14.00" fill="#000000">003c0</text>
<polygon fill="none" stroke="#000000" points="679,-5 679,-31 706,-31 706,-5 679,-5"/>
<text text-anchor="start" x="683.75" y="-13.4" font-family="Times,serif" font-size="14.00" fill="#000000">.....</text>
</g>
<!-- 0x19b297400030 -->
<g id="node2" class="node">
<title>0x19b297400030</title>
<polygon fill="#ccebc5" stroke="#000000" stroke-dasharray="5,2" points="106.428,-658.5901 49.572,-658.5901 49.572,-622.5901 106.428,-622.5901 106.428,-658.5901"/>
<text text-anchor="middle" x="78" y="-636.3901" font-family="Times,serif" font-size="14.00" fill="#000000">gcptr&#45;1</text>
</g>
<!-- 0x19b297400030&#45;&gt;heap -->
<g id="edge27" class="edge">
<title>0x19b297400030&#45;&gt;heap:0x19b297400000</title>
<path fill="none" stroke="#bcbddc" stroke-dasharray="5,2" d="M69.4635,-606.5921C39.0395,-478.4188 -50.5412,-31.045 177.8597,-18.2789"/>
<polygon fill="#bcbddc" stroke="#bcbddc" points="178.1,-21.7737 188,-18 177.9075,-14.7764 178.1,-21.7737"/>
</g>
<!-- 0x19b297400078 -->
<g id="node3" class="node">
<title>0x19b297400078</title>
<polygon fill="#ccebc5" stroke="#000000" stroke-dasharray="5,2" points="137.428,-514.5901 80.572,-514.5901 80.572,-478.5901 137.428,-478.5901 137.428,-514.5901"/>
<text text-anchor="middle" x="109" y="-492.3901" font-family="Times,serif" font-size="14.00" fill="#000000">gcptr&#45;2</text>
</g>
<!-- 0x19b297400030&#45;&gt;0x19b297400078 -->
<g id="edge1" class="edge">
<title>0x19b297400030:s&#45;&gt;0x19b297400078</title>
<path fill="none" stroke="#000000" d="M78,-622.5901C78,-614.8586 78.5572,-606.9354 79.5221,-599.0111"/>
<polygon fill="#000000" stroke="#000000" points="83.0047,-599.3811 80.9512,-588.9872 76.0748,-598.393 83.0047,-599.3811"/>
</g>
<!-- 0x19b297400078&#45;&gt;heap -->
<g id="edge28" class="edge">
<title>0x19b297400078&#45;&gt;heap:0x19b297400060</title>
<path fill="none" stroke="#bcbddc" stroke-dasharray="5,2" d="M110.7383,-462.5932C113.1561,-426.4368 118.7138,-367.7933 131,-318.5901 151.1353,-237.9529 164.3525,-219.9976 198,-144 219.3044,-95.8809 250.6354,-88.1267 254.5857,-41.2677"/>
<polygon fill="#bcbddc" stroke="#bcbddc" points="258.0939,-41.133 255,-31 251.0995,-40.8507 258.0939,-41.133"/>
</g>
<!-- 0x19b297400078&#45;&gt;0x19b297400030 -->
<g id="edge2" class="edge">
<title>0x19b297400078:s&#45;&gt;0x19b297400030</title>
<path fill="none" stroke="#000000" d="M109,-478.5901C109,-430.412 154.3172,-437.9801 137.2132,-514.5901 130.7195,-543.6757 116.745,-573.9728 104.0021,-597.5672"/>
<polygon fill="#000000" stroke="#000000" points="100.7889,-596.1454 99.013,-606.5904 106.9149,-599.5326 100.7889,-596.1454"/>
</g>
<!-- 0x19b297400090 -->
<g id="node4" class="node">
<title>0x19b297400090</title>
<polygon fill="#ccebc5" stroke="#000000" stroke-dasharray="5,2" points="211.428,-514.5901 154.572,-514.5901 154.572,-478.5901 211.428,-478.5901 211.428,-514.5901"/>
<text text-anchor="middle" x="183" y="-492.3901" font-family="Times,serif" font-size="14.00" fill="#000000">gcptr&#45;3</text>
</g>
<!-- 0x19b2974000d8 -->
<g id="node5" class="node">
<title>0x19b2974000d8</title>
<polygon fill="#ccebc5" stroke="#000000" stroke-dasharray="5,2" points="199.428,-370.5901 142.572,-370.5901 142.572,-334.5901 199.428,-334.5901 199.428,-370.5901"/>
<text text-anchor="middle" x="171" y="-348.3901" font-family="Times,serif" font-size="14.00" fill="#000000">gcptr&#45;4</text>
</g>
<!-- 0x19b297400090&#45;&gt;0x19b2974000d8 -->
<g id="edge3" class="edge">
<title>0x19b297400090:s&#45;&gt;0x19b2974000d8</title>
<path fill="none" stroke="#000000" d="M183,-478.5901C183,-470.9282 182.7774,-463.016 182.3928,-455.0638"/>
<polygon fill="#000000" stroke="#000000" points="185.882,-454.7722 181.8236,-444.9855 178.8931,-455.167 185.882,-454.7722"/>
</g>
<!-- 0x19b2974000d8&#45;&gt;heap -->
<g id="edge29" class="edge">
<title>0x19b2974000d8&#45;&gt;heap:0x19b2974000c0</title>
<path fill="none" stroke="#bcbddc" stroke-dasharray="5,2" d="M185.0237,-318.5933C214.5874,-246.8142 281.8311,-82.9366 296.9456,-40.7987"/>
<polygon fill="#bcbddc" stroke="#bcbddc" points="300.3654,-41.5885 300,-31 293.6826,-39.5053 300.3654,-41.5885"/>
</g>
<!-- 0x19b2974000d8&#45;&gt;0x19b297400078 -->
<g id="edge4" class="edge">
<title>0x19b2974000d8:s&#45;&gt;0x19b297400078</title>
<path fill="none" stroke="#000000" d="M171,-334.5901C171,-304.7037 216.3172,-317.3203 199.2132,-370.5901 189.1873,-401.8154 168.2548,-431.8725 149.0757,-454.794"/>
<polygon fill="#000000" stroke="#000000" points="146.2393,-452.725 142.3858,-462.5942 151.5527,-457.2822 146.2393,-452.725"/>
</g>
<!-- 0x19b2974000f0 -->
<g id="node6" class="node">
<title>0x19b2974000f0</title>
<polygon fill="#ccebc5" stroke="#000000" stroke-dasharray="5,2" points="273.428,-370.5901 216.572,-370.5901 216.572,-334.5901 273.428,-334.5901 273.428,-370.5901"/>
<text text-anchor="middle" x="245" y="-348.3901" font-family="Times,serif" font-size="14.00" fill="#000000">gcptr&#45;5</text>
</g>
<!-- 0x19b297400138 -->
<g id="node7" class="node">
<title>0x19b297400138</title>
<polygon fill="#ccebc5" stroke="#000000" stroke-dasharray="5,2" points="325.428,-203.295 268.572,-203.295 268.572,-167.295 325.428,-167.295 325.428,-203.295"/>
<text text-anchor="middle" x="297" y="-181.095" font-family="Times,serif" font-size="14.00" fill="#000000">gcptr&#45;6</text>
</g>
<!-- 0x19b2974000f0&#45;&gt;0x19b297400138 -->
<g id="edge5" class="edge">
<title>0x19b2974000f0:s&#45;&gt;0x19b297400138</title>
<path fill="none" stroke="#000000" d="M245,-334.5901C245,-319.086 247.5319,-303.1549 251.4783,-287.7402"/>
<polygon fill="#000000" stroke="#000000" points="254.9644,-288.2664 254.2635,-277.6947 248.2188,-286.396 254.9644,-288.2664"/>
</g>
<!-- 0x19b297400138&#45;&gt;heap -->
<g id="edge30" class="edge">
<title>0x19b297400138&#45;&gt;heap:0x19b297400120</title>
<path fill="none" stroke="#bcbddc" stroke-dasharray="5,2" d="M313.6909,-151.2957C326.1351,-123.0392 341.3674,-81.1414 343.6956,-41.2163"/>
<polygon fill="#bcbddc" stroke="#bcbddc" points="347.2006,-41.0998 344,-31 340.2037,-40.8913 347.2006,-41.0998"/>
</g>
<!-- 0x19b297400138&#45;&gt;0x19b2974000d8 -->
<g id="edge6" class="edge">
<title>0x19b297400138:s&#45;&gt;0x19b2974000d8</title>
<path fill="none" stroke="#000000" d="M297,-167.295C297,-127.7498 359.4212,-122.5658 325.2132,-203.295 322.2276,-210.341 259.5649,-269.8272 215.0487,-311.5463"/>
<polygon fill="#000000" stroke="#000000" points="212.428,-309.2053 207.52,-318.5948 217.2121,-314.3154 212.428,-309.2053"/>
</g>
<!-- 0x19b297400198 -->
<g id="node8" class="node">
<title>0x19b297400198</title>
<polygon fill="#ccebc5" stroke="#000000" stroke-dasharray="5,2" points="494.428,-658.5901 437.572,-658.5901 437.572,-622.5901 494.428,-622.5901 494.428,-658.5901"/>
<text text-anchor="middle" x="466" y="-636.3901" font-family="Times,serif" font-size="14.00" fill="#000000">gcptr&#45;7</text>
</g>
<!-- 0x19b297400198&#45;&gt;heap -->
<g id="edge31" class="edge">
<title>0x19b297400198&#45;&gt;heap:0x19b297400180</title>
<path fill="none" stroke="#bcbddc" stroke-dasharray="5,2" d="M423,-606.5901C406.753,-596.7074 394.317,-604.9648 384,-588.9901 353.5222,-541.7985 383.6746,-518.7669 384,-462.5901 385.0911,-274.2282 388.8604,-224.6096 388.9962,-41.2579"/>
<polygon fill="#bcbddc" stroke="#bcbddc" points="392.4962,-41.0013 389,-31 385.4962,-40.9987 392.4962,-41.0013"/>
</g>
<!-- 0x19b297400228 -->
<g id="node10" class="node">
<title>0x19b297400228</title>
<polygon fill="#ccebc5" stroke="#000000" stroke-dasharray="5,2" points="452.428,-514.5901 395.572,-514.5901 395.572,-478.5901 452.428,-478.5901 452.428,-514.5901"/>
<text text-anchor="middle" x="424" y="-492.3901" font-family="Times,serif" font-size="14.00" fill="#000000">gcptr&#45;9</text>
</g>
<!-- 0x19b297400198&#45;&gt;0x19b297400228 -->
<g id="edge7" class="edge">
<title>0x19b297400198:s&#45;&gt;0x19b297400228</title>
<path fill="none" stroke="#000000" d="M466,-622.5901C466,-614.7953 465.2676,-606.862 463.9963,-598.9627"/>
<polygon fill="#000000" stroke="#000000" points="467.4076,-598.1648 462.1123,-588.9881 460.5292,-599.464 467.4076,-598.1648"/>
</g>
<!-- 0x19b2974001b0 -->
<g id="node9" class="node">
<title>0x19b2974001b0</title>
<polygon fill="#ccebc5" stroke="#000000" stroke-dasharray="5,2" points="568.428,-658.5901 511.572,-658.5901 511.572,-622.5901 568.428,-622.5901 568.428,-658.5901"/>
<text text-anchor="middle" x="540" y="-636.3901" font-family="Times,serif" font-size="14.00" fill="#000000">gcptr&#45;8</text>
</g>
<!-- 0x19b297400258 -->
<g id="node11" class="node">
<title>0x19b297400258</title>
<polygon fill="#ccebc5" stroke="#000000" stroke-dasharray="5,2" points="708.9278,-514.5901 645.0722,-514.5901 645.0722,-478.5901 708.9278,-478.5901 708.9278,-514.5901"/>
<text text-anchor="middle" x="677" y="-492.3901" font-family="Times,serif" font-size="14.00" fill="#000000">gcptr&#45;10</text>
</g>
<!-- 0x19b2974001b0&#45;&gt;0x19b297400258 -->
<g id="edge8" class="edge">
<title>0x19b2974001b0:s&#45;&gt;0x19b297400258</title>
<path fill="none" stroke="#000000" d="M540,-622.5901C540,-580.5302 594.0087,-613.832 628.6538,-594.9833"/>
<polygon fill="#000000" stroke="#000000" points="630.9187,-597.6659 637,-588.9901 626.8358,-591.9799 630.9187,-597.6659"/>
</g>
<!-- 0x19b297400228&#45;&gt;heap -->
<g id="edge32" class="edge">
<title>0x19b297400228&#45;&gt;heap:0x19b2974001e0</title>
<path fill="none" stroke="#bcbddc" stroke-dasharray="5,2" d="M425.2304,-462.5921C427.8466,-387.3346 433.7448,-200.6964 433.992,-41.2494"/>
<polygon fill="#bcbddc" stroke="#bcbddc" points="437.4921,-41.0028 434,-31 430.4921,-40.9972 437.4921,-41.0028"/>
</g>
<!-- 0x19b297400228&#45;&gt;0x19b297400198 -->
<g id="edge9" class="edge">
<title>0x19b297400228:s&#45;&gt;0x19b297400198</title>
<path fill="none" stroke="#000000" d="M424,-478.5901C424,-466.0509 442.9784,-470.1078 452.2132,-478.5901 460.7695,-486.4491 464.0226,-551.2015 465.2548,-596.4194"/>
<polygon fill="#000000" stroke="#000000" points="461.7602,-596.6844 465.5075,-606.5944 468.758,-596.5106 461.7602,-596.6844"/>
</g>
<!-- 0x19b297400258&#45;&gt;heap -->
<g id="edge33" class="edge">
<title>0x19b297400258&#45;&gt;heap:0x19b297400240</title>
<path fill="none" stroke="#bcbddc" stroke-dasharray="5,2" d="M637,-462.5901C587.0649,-440.0574 552.6275,-484.8073 515,-444.9901 390.5014,-313.2464 475.7035,-219.2313 478.9081,-41.1888"/>
<polygon fill="#bcbddc" stroke="#bcbddc" points="482.4096,-41.0312 479,-31 475.4099,-40.968 482.4096,-41.0312"/>
</g>
<!-- 0x19b2974002e8 -->
<g id="node14" class="node">
<title>0x19b2974002e8</title>
<polygon fill="#ccebc5" stroke="#000000" stroke-dasharray="5,2" points="590.9278,-370.5901 527.0722,-370.5901 527.0722,-334.5901 590.9278,-334.5901 590.9278,-370.5901"/>
<text text-anchor="middle" x="559" y="-348.3901" font-family="Times,serif" font-size="14.00" fill="#000000">gcptr&#45;13</text>
</g>
<!-- 0x19b297400258&#45;&gt;0x19b2974002e8 -->
<g id="edge10" class="edge">
<title>0x19b297400258:s&#45;&gt;0x19b2974002e8</title>
<path fill="none" stroke="#000000" d="M677,-478.5901C677,-453.2725 649.1783,-462.6119 631,-444.9901 628.3025,-442.3751 625.6194,-439.6565 622.9627,-436.8626"/>
<polygon fill="#000000" stroke="#000000" points="625.3518,-434.2904 615.9999,-429.3112 620.2055,-439.0356 625.3518,-434.2904"/>
</g>
<!-- 0x19b297400270 -->
<g id="node12" class="node">
<title>0x19b297400270</title>
<polygon fill="#ccebc5" stroke="#000000" stroke-dasharray="5,2" points="789.9278,-514.5901 726.0722,-514.5901 726.0722,-478.5901 789.9278,-478.5901 789.9278,-514.5901"/>
<text text-anchor="middle" x="758" y="-492.3901" font-family="Times,serif" font-size="14.00" fill="#000000">gcptr&#45;11</text>
</g>
<!-- 0x19b297400318 -->
<g id="node15" class="node">
<title>0x19b297400318</title>
<polygon fill="#ccebc5" stroke="#000000" stroke-dasharray="5,2" points="787.9278,-370.5901 724.0722,-370.5901 724.0722,-334.5901 787.9278,-334.5901 787.9278,-370.5901"/>
<text text-anchor="middle" x="756" y="-348.3901" font-family="Times,serif" font-size="14.00" fill="#000000">gcptr&#45;14</text>
</g>
<!-- 0x19b297400270&#45;&gt;0x19b297400318 -->
<g id="edge11" class="edge">
<title>0x19b297400270:s&#45;&gt;0x19b297400318</title>
<path fill="none" stroke="#000000" d="M758,-478.5901C758,-470.9416 757.9627,-463.0324 757.8983,-455.0761"/>
<polygon fill="#000000" stroke="#000000" points="761.3974,-454.9557 757.803,-444.9892 754.3977,-455.0219 761.3974,-454.9557"/>
</g>
<!-- 0x19b297400288 -->
<g id="node13" class="node">
<title>0x19b297400288</title>
<polygon fill="#ccebc5" stroke="#000000" stroke-dasharray="5,2" points="627.9278,-514.5901 564.0722,-514.5901 564.0722,-478.5901 627.9278,-478.5901 627.9278,-514.5901"/>
<text text-anchor="middle" x="596" y="-492.3901" font-family="Times,serif" font-size="14.00" fill="#000000">gcptr&#45;12</text>
</g>
<!-- 0x19b297400288&#45;&gt;0x19b297400198 -->
<g id="edge12" class="edge">
<title>0x19b297400288:s&#45;&gt;0x19b297400198</title>
<path fill="none" stroke="#000000" d="M596,-478.5901C596,-478.5901 627.7132,-514.5901 627.7132,-514.5901 608.6672,-558.7999 589.7511,-563.3656 549,-588.9901 533.799,-598.5485 525.1076,-596.5154 512.201,-601.836"/>
<polygon fill="#000000" stroke="#000000" points="510.2775,-598.8902 503,-606.5901 513.4908,-605.1091 510.2775,-598.8902"/>
</g>
<!-- 0x19b2974002e8&#45;&gt;heap -->
<g id="edge34" class="edge">
<title>0x19b2974002e8&#45;&gt;heap:0x19b2974002a0</title>
<path fill="none" stroke="#bcbddc" stroke-dasharray="5,2" d="M552.6701,-318.5946C542.6748,-261.964 524.2408,-144.3423 523.0597,-41.2754"/>
<polygon fill="#bcbddc" stroke="#bcbddc" points="526.5581,-40.9795 523,-31 519.5582,-41.0202 526.5581,-40.9795"/>
</g>
<!-- 0x19b2974002e8&#45;&gt;0x19b297400258 -->
<g id="edge13" class="edge">
<title>0x19b2974002e8:s&#45;&gt;0x19b297400258</title>
<path fill="none" stroke="#000000" d="M559,-334.5901C559,-320.4953 579.1641,-326.5105 590.7132,-334.5901 633.5113,-364.531 604.191,-400.1636 631,-444.9901 632.9133,-448.1892 635.0395,-451.3717 637.2987,-454.4944"/>
<polygon fill="#000000" stroke="#000000" points="634.6602,-456.8045 643.5351,-462.5913 640.2059,-452.5331 634.6602,-456.8045"/>
</g>
<!-- 0x19b297400318&#45;&gt;heap -->
<g id="edge35" class="edge">
<title>0x19b297400318&#45;&gt;heap:0x19b297400300</title>
<path fill="none" stroke="#bcbddc" stroke-dasharray="5,2" d="M719.5204,-318.5907C666.3887,-265.2938 573.4268,-156.2045 568.2278,-41.0365"/>
<polygon fill="#bcbddc" stroke="#bcbddc" points="571.7261,-40.918 568,-31 564.7279,-41.0769 571.7261,-40.918"/>
</g>
<!-- 0x19b2974003a8 -->
<g id="node17" class="node">
<title>0x19b2974003a8</title>
<polygon fill="#ccebc5" stroke="#000000" stroke-dasharray="5,2" points="787.9278,-203.295 724.0722,-203.295 724.0722,-167.295 787.9278,-167.295 787.9278,-203.295"/>
<text text-anchor="middle" x="756" y="-181.095" font-family="Times,serif" font-size="14.00" fill="#000000">gcptr&#45;16</text>
</g>
<!-- 0x19b297400318&#45;&gt;0x19b2974003a8 -->
<g id="edge14" class="edge">
<title>0x19b297400318:s&#45;&gt;0x19b2974003a8</title>
<path fill="none" stroke="#000000" d="M756,-334.5901C756,-319.4983 756,-303.5484 756,-287.9114"/>
<polygon fill="#000000" stroke="#000000" points="759.5001,-287.693 756,-277.6931 752.5001,-287.6931 759.5001,-287.693"/>
</g>
<!-- 0x19b297400348 -->
<g id="node16" class="node">
<title>0x19b297400348</title>
<polygon fill="#ccebc5" stroke="#000000" stroke-dasharray="5,2" points="706.9278,-370.5901 643.0722,-370.5901 643.0722,-334.5901 706.9278,-334.5901 706.9278,-370.5901"/>
<text text-anchor="middle" x="675" y="-348.3901" font-family="Times,serif" font-size="14.00" fill="#000000">gcptr&#45;15</text>
</g>
<!-- 0x19b297400348&#45;&gt;0x19b297400258 -->
<g id="edge15" class="edge">
<title>0x19b297400348:s&#45;&gt;0x19b297400258</title>
<path fill="none" stroke="#000000" d="M675,-334.5901C675,-320.4953 696.7467,-324.6236 706.7132,-334.5901 723.0073,-350.8842 707.0064,-410.8751 692.917,-453.0821"/>
<polygon fill="#000000" stroke="#000000" points="689.5888,-451.9979 689.6755,-462.5924 696.2145,-454.2563 689.5888,-451.9979"/>
</g>
<!-- 0x19b2974003a8&#45;&gt;heap -->
<g id="edge36" class="edge">
<title>0x19b2974003a8&#45;&gt;heap:0x19b297400360</title>
<path fill="none" stroke="#bcbddc" stroke-dasharray="5,2" d="M695.7327,-151.2968C659.2539,-126.131 618.7743,-88.13 613.5627,-41.1516"/>
<polygon fill="#bcbddc" stroke="#bcbddc" points="617.0482,-40.7909 613,-31 610.0589,-41.1784 617.0482,-40.7909"/>
</g>
<!-- 0x19b2974003a8&#45;&gt;0x19b297400318 -->
<g id="edge16" class="edge">
<title>0x19b2974003a8:s&#45;&gt;0x19b297400318</title>
<path fill="none" stroke="#000000" d="M756,-167.295C756,-153.2003 777.7467,-157.3285 787.7132,-167.295 807.1183,-186.7001 787.3429,-260.572 771.4896,-308.9765"/>
<polygon fill="#000000" stroke="#000000" points="768.1263,-307.9983 768.2829,-318.592 774.7668,-310.2129 768.1263,-307.9983"/>
</g>
<!-- 0x19b2974003c0 -->
<g id="node18" class="node">
<title>0x19b2974003c0</title>
<ellipse fill="#fed9a6" stroke="#000000" cx="892" cy="-185.295" rx="80.1097" ry="41.0911"/>
<text text-anchor="middle" x="892" y="-197.895" font-family="Times,serif" font-size="14.00" fill="#000000">chunk</text>
<text text-anchor="middle" x="892" y="-181.095" font-family="Times,serif" font-size="14.00" fill="#000000">0x19b2974003c0</text>
<text text-anchor="middle" x="892" y="-164.295" font-family="Times,serif" font-size="14.00" fill="#000000">size = 33553472</text>
</g>
<!-- 0x19b2974003c0&#45;&gt;heap -->
<g id="edge37" class="edge">
<title>0x19b2974003c0&#45;&gt;heap:0x19b2974003c0</title>
<path fill="none" stroke="#bcbddc" stroke-dasharray="5,2" d="M836.6059,-155.3073C775.2713,-121.311 682.2533,-67.1249 661.2945,-40.1795"/>
<polygon fill="#bcbddc" stroke="#bcbddc" points="664.4079,-38.5746 657,-31 658.0674,-41.5409 664.4079,-38.5746"/>
</g>
<!-- 0x7ffc0740f920 -->
<g id="node19" class="node">
<title>0x7ffc0740f920</title>
<polygon fill="#cccccc" stroke="#000000" points="875.9278,-370.5901 812.0722,-370.5901 812.0722,-334.5901 875.9278,-334.5901 875.9278,-370.5901"/>
<text text-anchor="middle" x="844" y="-348.3901" font-family="Times,serif" font-size="14.00" fill="#000000">gcptr&#45;17</text>
</g>
<!-- 0x7ffc0740f920&#45;&gt;0x19b2974003a8 -->
<g id="edge17" class="edge">
<title>0x7ffc0740f920:s&#45;&gt;0x19b2974003a8</title>
<path fill="none" stroke="#000000" d="M844,-334.5901C844,-307.0743 824.6911,-304.5402 809.0026,-286.0139"/>
<polygon fill="#000000" stroke="#000000" points="811.6897,-283.7564 803,-277.695 806.0132,-287.8524 811.6897,-283.7564"/>
</g>
<!-- 0x7ffc0740f958 -->
<g id="node20" class="node">
<title>0x7ffc0740f958</title>
<polygon fill="#cccccc" stroke="#000000" points="877.9278,-514.5901 814.0722,-514.5901 814.0722,-478.5901 877.9278,-478.5901 877.9278,-514.5901"/>
<text text-anchor="middle" x="846" y="-492.3901" font-family="Times,serif" font-size="14.00" fill="#000000">gcptr&#45;18</text>
</g>
<!-- 0x7ffc0740f958&#45;&gt;0x19b297400318 -->
<g id="edge18" class="edge">
<title>0x7ffc0740f958:s&#45;&gt;0x19b297400318</title>
<path fill="none" stroke="#000000" d="M846,-478.5901C846,-457.9366 826.0002,-461.6686 810.5406,-451.6713"/>
<polygon fill="#000000" stroke="#000000" points="812.8058,-449.0022 803,-444.9901 808.1636,-454.2415 812.8058,-449.0022"/>
</g>
<!-- 0x7ffc0740f990 -->
<g id="node21" class="node">
<title>0x7ffc0740f990</title>
<polygon fill="#cccccc" stroke="#000000" points="539.9278,-514.5901 476.0722,-514.5901 476.0722,-478.5901 539.9278,-478.5901 539.9278,-514.5901"/>
<text text-anchor="middle" x="508" y="-492.3901" font-family="Times,serif" font-size="14.00" fill="#000000">gcptr&#45;19</text>
</g>
<!-- 0x7ffc0740f990&#45;&gt;0x19b2974002e8 -->
<g id="edge19" class="edge">
<title>0x7ffc0740f990:s&#45;&gt;0x19b2974002e8</title>
<path fill="none" stroke="#000000" d="M508,-478.5901C508,-470.7335 508.8625,-462.7895 510.3632,-454.9136"/>
<polygon fill="#000000" stroke="#000000" points="513.8165,-455.5091 512.5885,-444.9857 506.986,-453.978 513.8165,-455.5091"/>
</g>
<!-- 0x7ffc0740f9c8 -->
<g id="node22" class="node">
<title>0x7ffc0740f9c8</title>
<polygon fill="#cccccc" stroke="#000000" points="708.9278,-658.5901 645.0722,-658.5901 645.0722,-622.5901 708.9278,-622.5901 708.9278,-658.5901"/>
<text text-anchor="middle" x="677" y="-636.3901" font-family="Times,serif" font-size="14.00" fill="#000000">gcptr&#45;20</text>
</g>
<!-- 0x7ffc0740f9c8&#45;&gt;0x19b297400258 -->
<g id="edge20" class="edge">
<title>0x7ffc0740f9c8:s&#45;&gt;0x19b297400258</title>
<path fill="none" stroke="#000000" d="M677,-622.5901C677,-614.9412 677,-607.031 677,-599.0738"/>
<polygon fill="#000000" stroke="#000000" points="680.5001,-598.9855 677,-588.9855 673.5001,-598.9856 680.5001,-598.9855"/>
</g>
<!-- 0x7ffc0740fa00 -->
<g id="node23" class="node">
<title>0x7ffc0740fa00</title>
<polygon fill="#cccccc" stroke="#000000" points="413.9278,-658.5901 350.0722,-658.5901 350.0722,-622.5901 413.9278,-622.5901 413.9278,-658.5901"/>
<text text-anchor="middle" x="382" y="-636.3901" font-family="Times,serif" font-size="14.00" fill="#000000">gcptr&#45;21</text>
</g>
<!-- 0x7ffc0740fa00&#45;&gt;0x19b297400228 -->
<g id="edge21" class="edge">
<title>0x7ffc0740fa00:s&#45;&gt;0x19b297400228</title>
<path fill="none" stroke="#000000" d="M382,-622.5901C382,-614.7953 382.7324,-606.862 384.0037,-598.9627"/>
<polygon fill="#000000" stroke="#000000" points="387.4708,-599.464 385.8877,-588.9881 380.5924,-598.1648 387.4708,-599.464"/>
</g>
<!-- 0x7ffc0740fa38 -->
<g id="node24" class="node">
<title>0x7ffc0740fa38</title>
<polygon fill="#cccccc" stroke="#000000" points="497.9278,-802.5901 434.0722,-802.5901 434.0722,-766.5901 497.9278,-766.5901 497.9278,-802.5901"/>
<text text-anchor="middle" x="466" y="-780.3901" font-family="Times,serif" font-size="14.00" fill="#000000">gcptr&#45;22</text>
</g>
<!-- 0x7ffc0740fa38&#45;&gt;0x19b297400198 -->
<g id="edge22" class="edge">
<title>0x7ffc0740fa38:s&#45;&gt;0x19b297400198</title>
<path fill="none" stroke="#000000" d="M466,-766.5901C466,-758.9412 466,-751.031 466,-743.0738"/>
<polygon fill="#000000" stroke="#000000" points="469.5001,-742.9855 466,-732.9855 462.5001,-742.9856 469.5001,-742.9855"/>
</g>
<!-- 0x7ffc0740fa68 -->
<g id="node25" class="node">
<title>0x7ffc0740fa68</title>
<polygon fill="#cccccc" stroke="#000000" points="360.9278,-370.5901 297.0722,-370.5901 297.0722,-334.5901 360.9278,-334.5901 360.9278,-370.5901"/>
<text text-anchor="middle" x="329" y="-348.3901" font-family="Times,serif" font-size="14.00" fill="#000000">gcptr&#45;23</text>
</g>
<!-- 0x7ffc0740fa68&#45;&gt;0x19b297400138 -->
<g id="edge23" class="edge">
<title>0x7ffc0740fa68:s&#45;&gt;0x19b297400138</title>
<path fill="none" stroke="#000000" d="M329,-334.5901C329,-319.3331 327.3825,-303.3899 324.8747,-287.8404"/>
<polygon fill="#000000" stroke="#000000" points="328.2708,-286.9409 323.1063,-277.6901 321.3747,-288.1425 328.2708,-286.9409"/>
</g>
<!-- 0x7ffc0740fa98 -->
<g id="node26" class="node">
<title>0x7ffc0740fa98</title>
<polygon fill="#cccccc" stroke="#000000" points="298.9278,-514.5901 235.0722,-514.5901 235.0722,-478.5901 298.9278,-478.5901 298.9278,-514.5901"/>
<text text-anchor="middle" x="267" y="-492.3901" font-family="Times,serif" font-size="14.00" fill="#000000">gcptr&#45;24</text>
</g>
<!-- 0x7ffc0740fa98&#45;&gt;0x19b2974000d8 -->
<g id="edge24" class="edge">
<title>0x7ffc0740fa98:s&#45;&gt;0x19b2974000d8</title>
<path fill="none" stroke="#000000" d="M267,-478.5901C267,-452.0679 236.7418,-463.7826 215.9506,-451.5653"/>
<polygon fill="#000000" stroke="#000000" points="217.9367,-448.666 208,-444.9901 213.4756,-454.0603 217.9367,-448.666"/>
</g>
<!-- 0x7ffc0740fad8 -->
<g id="node27" class="node">
<title>0x7ffc0740fad8</title>
<polygon fill="#cccccc" stroke="#000000" points="193.9278,-658.5901 130.0722,-658.5901 130.0722,-622.5901 193.9278,-622.5901 193.9278,-658.5901"/>
<text text-anchor="middle" x="162" y="-636.3901" font-family="Times,serif" font-size="14.00" fill="#000000">gcptr&#45;25</text>
</g>
<!-- 0x7ffc0740fad8&#45;&gt;0x19b297400078 -->
<g id="edge25" class="edge">
<title>0x7ffc0740fad8:s&#45;&gt;0x19b297400078</title>
<path fill="none" stroke="#000000" d="M162,-622.5901C162,-609.9266 156.5093,-605.84 150.9587,-597.82"/>
<polygon fill="#000000" stroke="#000000" points="153.9482,-595.9955 146,-588.9901 147.8448,-599.4231 153.9482,-595.9955"/>
</g>
<!-- 0x7ffc0740fb08 -->
<g id="node28" class="node">
<title>0x7ffc0740fb08</title>
<polygon fill="#cccccc" stroke="#000000" points="109.9278,-802.5901 46.0722,-802.5901 46.0722,-766.5901 109.9278,-766.5901 109.9278,-802.5901"/>
<text text-anchor="middle" x="78" y="-780.3901" font-family="Times,serif" font-size="14.00" fill="#000000">gcptr&#45;26</text>
</g>
<!-- 0x7ffc0740fb08&#45;&gt;0x19b297400030 -->
<g id="edge26" class="edge">
<title>0x7ffc0740fb08:s&#45;&gt;0x19b297400030</title>
<path fill="none" stroke="#000000" d="M78,-766.5901C78,-758.9412 78,-751.031 78,-743.0738"/>
<polygon fill="#000000" stroke="#000000" points="81.5001,-742.9855 78,-732.9855 74.5001,-742.9856 81.5001,-742.9855"/>
</g>
</g>
</svg>
