<?xml version="1.0" encoding="UTF-8" standalone="no"?>
<!DOCTYPE svg PUBLIC "-//W3C//DTD SVG 1.1//EN"
 "http://www.w3.org/Graphics/SVG/1.1/DTD/svg11.dtd">
<!-- Generated by graphviz version 2.43.0 (0)
 -->
<!-- Title: Objects Pages: 1 -->
<svg width="262pt" height="260pt"
 viewBox="0.00 0.00 261.99 260.00" xmlns="http://www.w3.org/2000/svg" xmlns:xlink="http://www.w3.org/1999/xlink">
<g id="graph0" class="graph" transform="scale(1 1) rotate(0) translate(4 256)">
<title>Objects</title>
<polygon fill="white" stroke="transparent" points="-4,4 -4,-256 257.99,-256 257.99,4 -4,4"/>
<!-- 0x1000 -->
<g id="node1" class="node">
<title>0x1000</title>
<ellipse fill="none" stroke="black" cx="45.5" cy="-162" rx="45.49" ry="18"/>
<text text-anchor="middle" x="45.5" y="-158.3" font-family="Times,serif" font-size="14.00">0x1000</text>
</g>
<!-- 0x1100 -->
<g id="node2" class="node">
<title>0x1100</title>
<ellipse fill="none" stroke="black" cx="45.5" cy="-90" rx="45.49" ry="18"/>
<text text-anchor="middle" x="45.5" y="-86.3" font-family="Times,serif" font-size="14.00">0x1100</text>
</g>
<!-- 0x1000&#45;&gt;0x1100 -->
<g id="edge2" class="edge">
<title>0x1000&#45;&gt;0x1100</title>
<path fill="none" stroke="black" d="M45.5,-143.7C45.5,-135.98 45.5,-126.71 45.5,-118.11"/>
<polygon fill="black" stroke="black" points="49,-118.1 45.5,-108.1 42,-118.1 49,-118.1"/>
</g>
<!-- 0x1300 -->
<g id="node4" class="node">
<title>0x1300</title>
<ellipse fill="none" stroke="black" cx="45.5" cy="-18" rx="45.49" ry="18"/>
<text text-anchor="middle" x="45.5" y="-14.3" font-family="Times,serif" font-size="14.00">0x1300</text>
</g>
<!-- 0x1100&#45;&gt;0x1300 -->
<g id="edge3" class="edge">
<title>0x1100&#45;&gt;0x1300</title>
<path fill="none" stroke="black" d="M39.62,-72.05C38.8,-64.35 38.56,-55.03 38.89,-46.36"/>
<polygon fill="black" stroke="black" points="42.39,-46.49 39.58,-36.28 35.41,-46.01 42.39,-46.49"/>
</g>
<!-- 0x1700 -->
<g id="node5" class="node">
<title>0x1700</title>
<ellipse fill="none" stroke="black" cx="154.5" cy="-18" rx="45.49" ry="18"/>
<text text-anchor="middle" x="154.5" y="-14.3" font-family="Times,serif" font-size="14.00">0x1700</text>
</g>
<!-- 0x1100&#45;&gt;0x1700 -->
<g id="edge5" class="edge">
<title>0x1100&#45;&gt;0x1700</title>
<path fill="none" stroke="black" d="M68.35,-74.33C84.19,-64.15 105.49,-50.47 122.95,-39.26"/>
<polygon fill="black" stroke="black" points="125.15,-42 131.68,-33.65 121.37,-36.11 125.15,-42"/>
</g>
<!-- 0x1200 -->
<g id="node3" class="node">
<title>0x1200</title>
<ellipse fill="none" stroke="black" cx="45.5" cy="-234" rx="45.49" ry="18"/>
<text text-anchor="middle" x="45.5" y="-230.3" font-family="Times,serif" font-size="14.00">0x1200</text>
</g>
<!-- 0x1200&#45;&gt;0x1000 -->
<g id="edge1" class="edge">
<title>0x1200&#45;&gt;0x1000</title>
<path fill="none" stroke="black" d="M45.5,-215.7C45.5,-207.98 45.5,-198.71 45.5,-190.11"/>
<polygon fill="black" stroke="black" points="49,-190.1 45.5,-180.1 42,-190.1 49,-190.1"/>
</g>
<!-- 0x1300&#45;&gt;0x1100 -->
<g id="edge4" class="edge">
<title>0x1300&#45;&gt;0x1100</title>
<path fill="none" stroke="black" d="M51.41,-36.28C52.21,-44.03 52.44,-53.36 52.09,-62.01"/>
<polygon fill="black" stroke="black" points="48.59,-61.83 51.37,-72.05 55.57,-62.33 48.59,-61.83"/>
</g>
<!-- 0x1400 -->
<g id="node6" class="node">
<title>0x1400</title>
<ellipse fill="none" stroke="black" cx="208.5" cy="-234" rx="45.49" ry="18"/>
<text text-anchor="middle" x="208.5" y="-230.3" font-family="Times,serif" font-size="14.00">0x1400</text>
</g>
<!-- 0x1500 -->
<g id="node7" class="node">
<title>0x1500</title>
<ellipse fill="none" stroke="black" cx="172.5" cy="-162" rx="45.49" ry="18"/>
<text text-anchor="middle" x="172.5" y="-158.3" font-family="Times,serif" font-size="14.00">0x1500</text>
</g>
<!-- 0x1400&#45;&gt;0x1500 -->
<g id="edge6" class="edge">
<title>0x1400&#45;&gt;0x1500</title>
<path fill="none" stroke="black" d="M199.78,-216.05C195.58,-207.89 190.45,-197.91 185.78,-188.82"/>
<polygon fill="black" stroke="black" points="188.82,-187.08 181.13,-179.79 182.59,-190.28 188.82,-187.08"/>
</g>
<!-- 0x1600 -->
<g id="node8" class="node">
<title>0x1600</title>
<ellipse fill="none" stroke="black" cx="190.5" cy="-90" rx="45.49" ry="18"/>
<text text-anchor="middle" x="190.5" y="-86.3" font-family="Times,serif" font-size="14.00">0x1600</text>
</g>
<!-- 0x1500&#45;&gt;0x1600 -->
<g id="edge7" class="edge">
<title>0x1500&#45;&gt;0x1600</title>
<path fill="none" stroke="black" d="M176.85,-144.05C178.86,-136.26 181.28,-126.82 183.53,-118.08"/>
<polygon fill="black" stroke="black" points="186.95,-118.83 186.05,-108.28 180.17,-117.09 186.95,-118.83"/>
</g>
<!-- 0x1600&#45;&gt;0x1400 -->
<g id="edge8" class="edge">
<title>0x1600&#45;&gt;0x1400</title>
<path fill="none" stroke="black" d="M205.36,-107.29C213.31,-117.14 222.31,-130.39 226.5,-144 232.84,-164.63 227.25,-188.64 220.68,-206.53"/>
<polygon fill="black" stroke="black" points="217.34,-205.44 216.89,-216.02 223.85,-208.03 217.34,-205.44"/>
</g>
</g>
</svg>
