<?xml version="1.0" encoding="UTF-8" standalone="no"?>
<!DOCTYPE svg PUBLIC "-//W3C//DTD SVG 1.1//EN"
 "http://www.w3.org/Graphics/SVG/1.1/DTD/svg11.dtd">
<!-- Generated by graphviz version 2.43.0 (0)
 -->
<!-- Title: Treap Pages: 1 -->
<svg width="426pt" height="368pt"
 viewBox="0.00 0.00 425.50 367.60" xmlns="http://www.w3.org/2000/svg" xmlns:xlink="http://www.w3.org/1999/xlink">
<g id="graph0" class="graph" transform="scale(1 1) rotate(0) translate(4 363.6)">
<title>Treap</title>
<polygon fill="white" stroke="transparent" points="-4,4 -4,-363.6 421.5,-363.6 421.5,4 -4,4"/>
<!-- null0 -->
<g id="node1" class="node">
<title>null0</title>
<ellipse fill="black" stroke="black" cx="89" cy="-244.1" rx="1.8" ry="1.8"/>
</g>
<!-- 140475077385286 -->
<g id="node2" class="node">
<title>140475077385286</title>
<polygon fill="none" stroke="black" points="249,-359.6 49,-359.6 49,-306.6 249,-306.6 249,-359.6"/>
<text text-anchor="middle" x="149" y="-344.4" font-family="Times,serif" font-size="14.00">chunk = 0x7fc296940000</text>
<text text-anchor="middle" x="149" y="-329.4" font-family="Times,serif" font-size="14.00">chunk.size = 65536</text>
<text text-anchor="middle" x="149" y="-314.4" font-family="Times,serif" font-size="14.00">priority = 1904368710</text>
</g>
<!-- 140475077385286&#45;&gt;null0 -->
<g id="edge1" class="edge">
<title>140475077385286&#45;&gt;null0</title>
<path fill="none" stroke="black" d="M126.16,-306.58C117.3,-295.93 107.51,-283.13 100,-270.6 97.24,-265.99 94.8,-260.57 92.92,-255.91"/>
<polygon fill="black" stroke="black" points="96.06,-254.3 89.33,-246.12 89.49,-256.71 96.06,-254.3"/>
</g>
<!-- 140474240928105 -->
<g id="node3" class="node">
<title>140474240928105</title>
<polygon fill="none" stroke="black" points="309,-270.6 109,-270.6 109,-217.6 309,-217.6 309,-270.6"/>
<text text-anchor="middle" x="209" y="-255.4" font-family="Times,serif" font-size="14.00">chunk = 0x7fc296980000</text>
<text text-anchor="middle" x="209" y="-240.4" font-family="Times,serif" font-size="14.00">chunk.size = 65536</text>
<text text-anchor="middle" x="209" y="-225.4" font-family="Times,serif" font-size="14.00">priority = 597887337</text>
</g>
<!-- 140475077385286&#45;&gt;140474240928105 -->
<g id="edge2" class="edge">
<title>140475077385286&#45;&gt;140474240928105</title>
<path fill="none" stroke="black" d="M166.68,-306.47C172.55,-297.96 179.17,-288.35 185.41,-279.3"/>
<polygon fill="black" stroke="black" points="188.45,-281.07 191.24,-270.85 182.68,-277.09 188.45,-281.07"/>
</g>
<!-- 140473381531004 -->
<g id="node4" class="node">
<title>140473381531004</title>
<polygon fill="none" stroke="black" points="200,-181.6 0,-181.6 0,-128.6 200,-128.6 200,-181.6"/>
<text text-anchor="middle" x="100" y="-166.4" font-family="Times,serif" font-size="14.00">chunk = 0x7fc296960000</text>
<text text-anchor="middle" x="100" y="-151.4" font-family="Times,serif" font-size="14.00">chunk.size = 65536</text>
<text text-anchor="middle" x="100" y="-136.4" font-family="Times,serif" font-size="14.00">priority = 345484668</text>
</g>
<!-- 140474240928105&#45;&gt;140473381531004 -->
<g id="edge3" class="edge">
<title>140474240928105&#45;&gt;140473381531004</title>
<path fill="none" stroke="black" d="M176.89,-217.47C165.46,-208.35 152.44,-197.95 140.4,-188.35"/>
<polygon fill="black" stroke="black" points="142.26,-185.35 132.26,-181.85 137.89,-190.82 142.26,-185.35"/>
</g>
<!-- 140473439188531 -->
<g id="node7" class="node">
<title>140473439188531</title>
<polygon fill="none" stroke="black" points="417.5,-181.6 218.5,-181.6 218.5,-128.6 417.5,-128.6 417.5,-181.6"/>
<text text-anchor="middle" x="318" y="-166.4" font-family="Times,serif" font-size="14.00">chunk = 0x7fc2969c0000</text>
<text text-anchor="middle" x="318" y="-151.4" font-family="Times,serif" font-size="14.00">chunk.size = 65536</text>
<text text-anchor="middle" x="318" y="-136.4" font-family="Times,serif" font-size="14.00">priority = 334329395</text>
</g>
<!-- 140474240928105&#45;&gt;140473439188531 -->
<g id="edge6" class="edge">
<title>140474240928105&#45;&gt;140473439188531</title>
<path fill="none" stroke="black" d="M241.11,-217.47C252.54,-208.35 265.56,-197.95 277.6,-188.35"/>
<polygon fill="black" stroke="black" points="280.11,-190.82 285.74,-181.85 275.74,-185.35 280.11,-190.82"/>
</g>
<!-- null1 -->
<g id="node5" class="node">
<title>null1</title>
<ellipse fill="black" stroke="black" cx="89" cy="-66.1" rx="1.8" ry="1.8"/>
</g>
<!-- 140473381531004&#45;&gt;null1 -->
<g id="edge4" class="edge">
<title>140473381531004&#45;&gt;null1</title>
<path fill="none" stroke="black" d="M96.76,-128.47C94.65,-111.75 91.99,-90.78 90.4,-78.18"/>
<polygon fill="black" stroke="black" points="93.84,-77.49 89.11,-68 86.9,-78.36 93.84,-77.49"/>
</g>
<!-- null2 -->
<g id="node6" class="node">
<title>null2</title>
<ellipse fill="black" stroke="black" cx="111" cy="-66.1" rx="1.8" ry="1.8"/>
</g>
<!-- 140473381531004&#45;&gt;null2 -->
<g id="edge5" class="edge">
<title>140473381531004&#45;&gt;null2</title>
<path fill="none" stroke="black" d="M103.24,-128.47C105.35,-111.75 108.01,-90.78 109.6,-78.18"/>
<polygon fill="black" stroke="black" points="113.1,-78.36 110.89,-68 106.16,-77.49 113.1,-78.36"/>
</g>
<!-- 140473666044395 -->
<g id="node8" class="node">
<title>140473666044395</title>
<polygon fill="none" stroke="black" points="374,-92.6 174,-92.6 174,-39.6 374,-39.6 374,-92.6"/>
<text text-anchor="middle" x="274" y="-77.4" font-family="Times,serif" font-size="14.00">chunk = 0x7fc2969a0000</text>
<text text-anchor="middle" x="274" y="-62.4" font-family="Times,serif" font-size="14.00">chunk.size = 65536</text>
<text text-anchor="middle" x="274" y="-47.4" font-family="Times,serif" font-size="14.00">priority = 74252779</text>
</g>
<!-- 140473439188531&#45;&gt;140473666044395 -->
<g id="edge7" class="edge">
<title>140473439188531&#45;&gt;140473666044395</title>
<path fill="none" stroke="black" d="M305.04,-128.47C300.82,-120.13 296.07,-110.74 291.58,-101.86"/>
<polygon fill="black" stroke="black" points="294.66,-100.19 287.02,-92.85 288.41,-103.35 294.66,-100.19"/>
</g>
<!-- null5 -->
<g id="node11" class="node">
<title>null5</title>
<ellipse fill="black" stroke="black" cx="394" cy="-66.1" rx="1.8" ry="1.8"/>
</g>
<!-- 140473439188531&#45;&gt;null5 -->
<g id="edge10" class="edge">
<title>140473439188531&#45;&gt;null5</title>
<path fill="none" stroke="black" d="M350.08,-128.51C361.52,-118.23 373.83,-105.71 383,-92.6 386.17,-88.07 388.71,-82.47 390.54,-77.68"/>
<polygon fill="black" stroke="black" points="393.88,-78.74 393.72,-68.15 387.24,-76.53 393.88,-78.74"/>
</g>
<!-- null3 -->
<g id="node9" class="node">
<title>null3</title>
<ellipse fill="black" stroke="black" cx="263" cy="-1.8" rx="1.8" ry="1.8"/>
</g>
<!-- 140473666044395&#45;&gt;null3 -->
<g id="edge8" class="edge">
<title>140473666044395&#45;&gt;null3</title>
<path fill="none" stroke="black" d="M269.46,-39.4C267.87,-30.37 266.16,-20.7 264.9,-13.57"/>
<polygon fill="black" stroke="black" points="268.34,-12.91 263.15,-3.67 261.45,-14.13 268.34,-12.91"/>
</g>
<!-- null4 -->
<g id="node10" class="node">
<title>null4</title>
<ellipse fill="black" stroke="black" cx="285" cy="-1.8" rx="1.8" ry="1.8"/>
</g>
<!-- 140473666044395&#45;&gt;null4 -->
<g id="edge9" class="edge">
<title>140473666044395&#45;&gt;null4</title>
<path fill="none" stroke="black" d="M278.54,-39.4C280.13,-30.37 281.84,-20.7 283.1,-13.57"/>
<polygon fill="black" stroke="black" points="286.55,-14.13 284.85,-3.67 279.66,-12.91 286.55,-14.13"/>
</g>
</g>
</svg>
