<?xml version="1.0" encoding="UTF-8" standalone="no"?>
<!DOCTYPE svg PUBLIC "-//W3C//DTD SVG 1.1//EN"
 "http://www.w3.org/Graphics/SVG/1.1/DTD/svg11.dtd">
<!-- Generated by graphviz version 2.43.0 (0)
 -->
<!-- Title: Treap Pages: 1 -->
<svg width="593pt" height="279pt"
 viewBox="0.00 0.00 593.00 278.60" xmlns="http://www.w3.org/2000/svg" xmlns:xlink="http://www.w3.org/1999/xlink">
<g id="graph0" class="graph" transform="scale(1 1) rotate(0) translate(4 274.6)">
<title>Treap</title>
<polygon fill="white" stroke="transparent" points="-4,4 -4,-274.6 589,-274.6 589,4 -4,4"/>
<!-- 139962771988524 -->
<g id="node1" class="node">
<title>139962771988524</title>
<polygon fill="none" stroke="black" points="304.5,-270.6 106.5,-270.6 106.5,-217.6 304.5,-217.6 304.5,-270.6"/>
<text text-anchor="middle" x="205.5" y="-255.4" font-family="Times,serif" font-size="14.00">chunk = 0x7f4bf4300000</text>
<text text-anchor="middle" x="205.5" y="-240.4" font-family="Times,serif" font-size="14.00">chunk.size = 65536</text>
<text text-anchor="middle" x="205.5" y="-225.4" font-family="Times,serif" font-size="14.00">priority = 1803444268</text>
</g>
<!-- 139962926527295 -->
<g id="node2" class="node">
<title>139962926527295</title>
<polygon fill="none" stroke="black" points="197,-181.6 0,-181.6 0,-128.6 197,-128.6 197,-181.6"/>
<text text-anchor="middle" x="98.5" y="-166.4" font-family="Times,serif" font-size="14.00">chunk = 0x7f4bf42c0000</text>
<text text-anchor="middle" x="98.5" y="-151.4" font-family="Times,serif" font-size="14.00">chunk.size = 131072</text>
<text text-anchor="middle" x="98.5" y="-136.4" font-family="Times,serif" font-size="14.00">priority = 1554543423</text>
</g>
<!-- 139962771988524&#45;&gt;139962926527295 -->
<g id="edge1" class="edge">
<title>139962771988524&#45;&gt;139962926527295</title>
<path fill="none" stroke="black" d="M173.98,-217.47C162.76,-208.35 149.98,-197.95 138.16,-188.35"/>
<polygon fill="black" stroke="black" points="140.14,-185.44 130.17,-181.85 135.72,-190.87 140.14,-185.44"/>
</g>
<!-- 139963415093446 -->
<g id="node5" class="node">
<title>139963415093446</title>
<polygon fill="none" stroke="black" points="412,-181.6 215,-181.6 215,-128.6 412,-128.6 412,-181.6"/>
<text text-anchor="middle" x="313.5" y="-166.4" font-family="Times,serif" font-size="14.00">chunk = 0x7f4bf42c0000</text>
<text text-anchor="middle" x="313.5" y="-151.4" font-family="Times,serif" font-size="14.00">chunk.size = 131072</text>
<text text-anchor="middle" x="313.5" y="-136.4" font-family="Times,serif" font-size="14.00">priority = 831480006</text>
</g>
<!-- 139962771988524&#45;&gt;139963415093446 -->
<g id="edge4" class="edge">
<title>139962771988524&#45;&gt;139963415093446</title>
<path fill="none" stroke="black" d="M237.32,-217.47C248.64,-208.35 261.54,-197.95 273.47,-188.35"/>
<polygon fill="black" stroke="black" points="275.94,-190.85 281.53,-181.85 271.55,-185.4 275.94,-190.85"/>
</g>
<!-- null0 -->
<g id="node3" class="node">
<title>null0</title>
<ellipse fill="black" stroke="black" cx="87.5" cy="-66.1" rx="1.8" ry="1.8"/>
</g>
<!-- 139962926527295&#45;&gt;null0 -->
<g id="edge2" class="edge">
<title>139962926527295&#45;&gt;null0</title>
<path fill="none" stroke="black" d="M95.26,-128.47C93.15,-111.75 90.49,-90.78 88.9,-78.18"/>
<polygon fill="black" stroke="black" points="92.34,-77.49 87.61,-68 85.4,-78.36 92.34,-77.49"/>
</g>
<!-- null1 -->
<g id="node4" class="node">
<title>null1</title>
<ellipse fill="black" stroke="black" cx="109.5" cy="-66.1" rx="1.8" ry="1.8"/>
</g>
<!-- 139962926527295&#45;&gt;null1 -->
<g id="edge3" class="edge">
<title>139962926527295&#45;&gt;null1</title>
<path fill="none" stroke="black" d="M101.74,-128.47C103.85,-111.75 106.51,-90.78 108.1,-78.18"/>
<polygon fill="black" stroke="black" points="111.6,-78.36 109.39,-68 104.66,-77.49 111.6,-78.36"/>
</g>
<!-- 139964276023463 -->
<g id="node6" class="node">
<title>139964276023463</title>
<polygon fill="none" stroke="black" points="369.5,-92.6 171.5,-92.6 171.5,-39.6 369.5,-39.6 369.5,-92.6"/>
<text text-anchor="middle" x="270.5" y="-77.4" font-family="Times,serif" font-size="14.00">chunk = 0x7f4bf4320000</text>
<text text-anchor="middle" x="270.5" y="-62.4" font-family="Times,serif" font-size="14.00">chunk.size = 65536</text>
<text text-anchor="middle" x="270.5" y="-47.4" font-family="Times,serif" font-size="14.00">priority = 214311079</text>
</g>
<!-- 139963415093446&#45;&gt;139964276023463 -->
<g id="edge5" class="edge">
<title>139963415093446&#45;&gt;139964276023463</title>
<path fill="none" stroke="black" d="M300.83,-128.47C296.71,-120.13 292.07,-110.74 287.68,-101.86"/>
<polygon fill="black" stroke="black" points="290.8,-100.26 283.23,-92.85 284.52,-103.37 290.8,-100.26"/>
</g>
<!-- 139964162023859 -->
<g id="node9" class="node">
<title>139964162023859</title>
<polygon fill="none" stroke="black" points="585,-92.6 388,-92.6 388,-39.6 585,-39.6 585,-92.6"/>
<text text-anchor="middle" x="486.5" y="-77.4" font-family="Times,serif" font-size="14.00">chunk = 0x7f4bf42c0000</text>
<text text-anchor="middle" x="486.5" y="-62.4" font-family="Times,serif" font-size="14.00">chunk.size = 131072</text>
<text text-anchor="middle" x="486.5" y="-47.4" font-family="Times,serif" font-size="14.00">priority = 100966835</text>
</g>
<!-- 139963415093446&#45;&gt;139964162023859 -->
<g id="edge8" class="edge">
<title>139963415093446&#45;&gt;139964162023859</title>
<path fill="none" stroke="black" d="M364.47,-128.47C383.92,-118.69 406.26,-107.45 426.48,-97.28"/>
<polygon fill="black" stroke="black" points="428.23,-100.32 435.6,-92.7 425.09,-94.07 428.23,-100.32"/>
</g>
<!-- null2 -->
<g id="node7" class="node">
<title>null2</title>
<ellipse fill="black" stroke="black" cx="259.5" cy="-1.8" rx="1.8" ry="1.8"/>
</g>
<!-- 139964276023463&#45;&gt;null2 -->
<g id="edge6" class="edge">
<title>139964276023463&#45;&gt;null2</title>
<path fill="none" stroke="black" d="M265.96,-39.4C264.37,-30.37 262.66,-20.7 261.4,-13.57"/>
<polygon fill="black" stroke="black" points="264.84,-12.91 259.65,-3.67 257.95,-14.13 264.84,-12.91"/>
</g>
<!-- null3 -->
<g id="node8" class="node">
<title>null3</title>
<ellipse fill="black" stroke="black" cx="281.5" cy="-1.8" rx="1.8" ry="1.8"/>
</g>
<!-- 139964276023463&#45;&gt;null3 -->
<g id="edge7" class="edge">
<title>139964276023463&#45;&gt;null3</title>
<path fill="none" stroke="black" d="M275.04,-39.4C276.63,-30.37 278.34,-20.7 279.6,-13.57"/>
<polygon fill="black" stroke="black" points="283.05,-14.13 281.35,-3.67 276.16,-12.91 283.05,-14.13"/>
</g>
<!-- null4 -->
<g id="node10" class="node">
<title>null4</title>
<ellipse fill="black" stroke="black" cx="475.5" cy="-1.8" rx="1.8" ry="1.8"/>
</g>
<!-- 139964162023859&#45;&gt;null4 -->
<g id="edge9" class="edge">
<title>139964162023859&#45;&gt;null4</title>
<path fill="none" stroke="black" d="M481.96,-39.4C480.37,-30.37 478.66,-20.7 477.4,-13.57"/>
<polygon fill="black" stroke="black" points="480.84,-12.91 475.65,-3.67 473.95,-14.13 480.84,-12.91"/>
</g>
<!-- null5 -->
<g id="node11" class="node">
<title>null5</title>
<ellipse fill="black" stroke="black" cx="497.5" cy="-1.8" rx="1.8" ry="1.8"/>
</g>
<!-- 139964162023859&#45;&gt;null5 -->
<g id="edge10" class="edge">
<title>139964162023859&#45;&gt;null5</title>
<path fill="none" stroke="black" d="M491.04,-39.4C492.63,-30.37 494.34,-20.7 495.6,-13.57"/>
<polygon fill="black" stroke="black" points="499.05,-14.13 497.35,-3.67 492.16,-12.91 499.05,-14.13"/>
</g>
</g>
</svg>
